<svg xmlns="http://www.w3.org/2000/svg" viewBox="0 0 1812.6 801.25"><defs><style>.cls-1{fill:#072b48;}.cls-2{fill:#0f88a8;}.cls-3{fill:#00662f;}.cls-4{fill:#fff;}.cls-5{fill:#0a7aa1;}.cls-6{fill:#c23a27;}.cls-7{fill:#f16725;}.cls-8{fill:#f9a451;}.cls-9{fill:#32afc0;}</style></defs><title>Asset 1</title><g id="Layer_2" data-name="Layer 2"><g id="Capa_1" data-name="Capa 1"><g id="_Group_" data-name="&lt;Group&gt;"><path class="cls-1" d="M1487.12,252.23a32.36,32.36,0,0,1-2.61-13.81c0-24.49,20.26-45.06,42.51-45.06,12.28,0,24.1,2.88,32.14,10.94,8.27-25.65,32.72-42.78,61.14-42.78,24.86,0,48.7,16.53,59.24,37.25a45.32,45.32,0,0,1,8.18-1.3c18.77,0,33.28,13.68,33.28,32.46a38.13,38.13,0,0,1-3.16,14.09c13.48,10.05,21,26.38,21,44.49a54.63,54.63,0,0,1-1.71,13.27c-2.28,16.82-27.68,44.74-54.93,44.74H1501.45c-28.14,0-51-21-51-46.93C1450.49,278.4,1466.17,258,1487.12,252.23Z"/></g><g id="_Group_2" data-name="&lt;Group&gt;"><path class="cls-2" d="M350.47,231.27a29.75,29.75,0,0,0,2.41-12.72C352.88,196,334.2,177,313.71,177c-11.32,0-22.21,2.65-29.62,10.08-7.61-23.64-30.14-39.41-56.33-39.41-22.91,0-44.87,15.23-54.59,34.32a41.69,41.69,0,0,0-7.52-1.2c-17.3,0-30.68,12.61-30.68,29.9a35.19,35.19,0,0,0,2.92,13c-12.41,9.27-19.31,24.3-19.31,41a51.06,51.06,0,0,0,1.56,12.22c2.11,15.5,25.51,41.22,50.62,41.22H337.26c25.93,0,47-19.37,47-43.24C384.23,255.38,369.76,236.62,350.47,231.27Z"/></g><g id="_Group_3" data-name="&lt;Group&gt;"><polygon id="_Path_" data-name="&lt;Path&gt;" class="cls-3" points="1236.52 766.87 778.91 766.87 740.98 140.74 1274.44 140.74 1236.52 766.87"/><g id="_Group_4" data-name="&lt;Group&gt;"><polygon id="_Path_2" data-name="&lt;Path&gt;" class="cls-4" points="894.53 714.57 850.49 714.57 818.78 193.05 862.83 193.05 894.53 714.57"/><polygon id="_Path_3" data-name="&lt;Path&gt;" class="cls-4" points="1120.88 714.57 1164.93 714.57 1196.64 193.05 1152.59 193.05 1120.88 714.57"/><polygon id="_Path_4" data-name="&lt;Path&gt;" class="cls-4" points="987.93 714.57 940.93 714.57 929.56 193.05 976.54 193.05 987.93 714.57"/><polygon id="_Path_5" data-name="&lt;Path&gt;" class="cls-4" points="1076.58 714.57 1029.59 714.57 1040.96 193.05 1087.95 193.05 1076.58 714.57"/></g><path id="_Compound_Path_" data-name="&lt;Compound Path&gt;" class="cls-3" d="M1106.69,66.4V0h-198V66.36H742.51V122.6l530.4.06V66.41ZM946.45,37.7H1069V66.38l-122.54,0Z"/><path id="_Path_6" data-name="&lt;Path&gt;" class="cls-3" d="M1163.39,441.65a155.68,155.68,0,1,1-155.68-155.7A155.68,155.68,0,0,1,1163.39,441.65Z"/><g id="_Group_5" data-name="&lt;Group&gt;"><path id="_Path_7" data-name="&lt;Path&gt;" class="cls-4" d="M943.56,346c3.32-5.65,7-17.43,24.65-19.55,19.78-2.35,28.08,17.23,28.08,17.23l5.71,14.46-29.85,51.55-49.51-28.82S940.24,351.63,943.56,346Z"/><path id="_Path_8" data-name="&lt;Path&gt;" class="cls-4" d="M920.57,515.33l-31.51-52.46s-4.79-8.48.73-17.19,12.1-21.61,12.1-21.61l-16-10.71,54.66-2,30.05,47-17.94-9s-39.22,56.3-31.26,65.4Z"/><path id="_Path_9" data-name="&lt;Path&gt;" class="cls-4" d="M961.44,545.09c-6.56,0-18.12,1.62-29-12.5-12.15-15.77.39-32.93.39-32.93l9.51-12.32,59.55-.79.65,57.28S968,545,961.44,545.09Z"/><path id="_Path_10" data-name="&lt;Path&gt;" class="cls-4" d="M989.13,326.12v-1l61.21-.16s9.74.25,14.38,9.45S1077,355.85,1077,355.85l17.39-8.22-26.26,48-55.81,1.67,16.89-10.81S1001,323.92,989.13,326.12Z"/><path id="_Path_11" data-name="&lt;Path&gt;" class="cls-4" d="M1091,530.38s-4.68,8.55-15,8.47-24.74,1.11-24.74,1.11l-.67,19.24L1020,513.85l24.11-50.37,1.85,20s68.54,3.61,72.06-8l.9.45Z"/><path id="_Path_12" data-name="&lt;Path&gt;" class="cls-4" d="M1127.33,456.73c-7,18.67-28.19,17.06-28.19,17.06l-15.48-1.56-32.1-50.17,48.32-30.76s17.89,29.06,21.4,34.58S1133.57,440,1127.33,456.73Z"/></g></g><g id="TreeBranches"><rect class="cls-5" x="70.75" y="348.7" width="2.86" height="80.8"/><rect class="cls-5" x="65.02" y="395.81" width="89.36" height="2.86" transform="translate(-277.92 257.29) rotate(-54.71)"/><rect class="cls-5" x="162.14" y="362.31" width="2.86" height="96.44" transform="translate(-83.76 44.31) rotate(-12.31)"/><rect class="cls-5" x="151.04" y="219.44" width="80.8" height="2.86" transform="translate(-22.84 22.08) rotate(-6.23)"/><rect class="cls-5" x="243.67" y="198.51" width="93.21" height="2.86" transform="translate(-44.8 90.56) rotate(-16.48)"/><rect class="cls-5" x="290.01" y="202.31" width="2.86" height="121.66" transform="translate(-97.22 319.02) rotate(-50.26)"/><rect class="cls-5" x="314.79" y="250.99" width="80.8" height="2.86" transform="translate(70.46 582.28) rotate(-84.6)"/><rect class="cls-5" x="426.73" y="175.74" width="2.86" height="102.81" transform="translate(-11.28 431.63) rotate(-52.9)"/><rect class="cls-5" x="360.96" y="287.13" width="107.72" height="2.86" transform="translate(-72.46 154.76) rotate(-19.47)"/><rect class="cls-5" x="412.3" y="309.69" width="80.8" height="2.86" transform="translate(-46.98 539.27) rotate(-59.04)"/><rect class="cls-5" x="382.92" y="296.78" width="2.86" height="80.8" transform="matrix(0.61, -0.79, 0.79, 0.61, -117.78, 433.51)"/><rect class="cls-5" x="267.95" y="334.79" width="80.8" height="2.86" transform="translate(-136.61 235.57) rotate(-34.73)"/><rect class="cls-5" x="443.27" y="367.49" width="2.86" height="80.8" transform="translate(-140.17 259.37) rotate(-28.28)"/><rect class="cls-5" x="494.72" y="432.36" width="80.8" height="2.86" transform="translate(-117.07 212.03) rotate(-20.25)"/><rect class="cls-5" x="545.67" y="343.42" width="2.86" height="80.8" transform="translate(-113.09 487.66) rotate(-43.99)"/><rect class="cls-5" x="517.01" y="336.29" width="43.67" height="2.86" transform="translate(-77.43 494.61) rotate(-46.36)"/><rect class="cls-5" x="439.24" y="357.33" width="80.8" height="2.86" transform="translate(-22.04 31.52) rotate(-3.68)"/><rect class="cls-5" x="498.6" y="270.72" width="2.86" height="80.8" transform="translate(-82.83 226.82) rotate(-23.66)"/><rect class="cls-5" x="519.2" y="246.09" width="2.86" height="80.8" transform="translate(28.42 619.45) rotate(-62.9)"/><rect class="cls-5" x="461.04" y="391.8" width="80.8" height="2.86" transform="translate(-74.31 666.33) rotate(-63.48)"/><rect class="cls-5" x="572.37" y="327.64" width="2.86" height="80.8" transform="translate(-30.39 52.36) rotate(-5.09)"/><rect class="cls-5" x="56.51" y="284.38" width="91.2" height="2.86" transform="translate(-192.68 213.62) rotate(-56.58)"/><rect class="cls-5" x="135.75" y="273.62" width="116.25" height="2.86" transform="translate(-142.63 276.86) rotate(-55.13)"/><rect class="cls-5" x="239.66" y="227.46" width="2.86" height="103.56" transform="translate(-23.87 22.54) rotate(-5.1)"/><rect class="cls-5" x="142.17" y="244.87" width="2.86" height="80.8" transform="translate(-20.22 11.11) rotate(-4.14)"/><rect class="cls-5" x="103.74" y="299.1" width="2.86" height="80.8" transform="translate(-248.98 369.43) rotate(-77.62)"/><rect class="cls-5" x="195.22" y="319.22" width="2.86" height="80.8" transform="translate(-192.88 487.17) rotate(-79.46)"/><rect class="cls-5" x="130.77" y="423.11" width="2.86" height="80.8" transform="translate(-348.88 493.27) rotate(-77.62)"/><rect class="cls-5" x="167.16" y="431.37" width="80.8" height="2.86" transform="translate(-267.99 367.67) rotate(-56.58)"/></g><g id="Logo"><path class="cls-6" d="M258.79,325.77a44.13,44.13,0,1,0,44.11,44.15v0A44.11,44.11,0,0,0,258.79,325.77Zm0,54a9.85,9.85,0,1,1,9.85-9.85h0A9.87,9.87,0,0,1,258.79,379.73Z"/><circle class="cls-7" cx="147.66" cy="343.27" r="26.63"/><circle class="cls-8" cx="179.13" cy="473.61" r="18.87"/><circle class="cls-9" cx="68.05" cy="454.75" r="27.7"/><circle class="cls-7" cx="73.63" cy="332.76" r="18.89"/><circle class="cls-6" cx="234.91" cy="216.42" r="16.49"/><circle class="cls-6" cx="419.87" cy="363.96" r="31"/><circle class="cls-7" cx="479.63" cy="266.16" r="17.13"/><circle class="cls-8" cx="349.42" cy="311.17" r="19.42"/><path class="cls-8" d="M138.93,202.31a25.13,25.13,0,1,0,25.15,25.15,25.13,25.13,0,0,0-25.15-25.15Zm0,30.63a5.5,5.5,0,1,1,5.5-5.5v0a5.47,5.47,0,0,1-5.32,5.63h-.18Z"/><path class="cls-8" d="M567.25,286.54a24.63,24.63,0,1,0,24.63,24.63,24.63,24.63,0,0,0-24.63-24.63Zm0,30.45a5.83,5.83,0,1,1,5.8-5.85v0A5.83,5.83,0,0,1,567.25,317Z"/><circle class="cls-9" cx="520.66" cy="355.56" r="14.34"/><path class="cls-9" d="M471.58,418.47a36.28,36.28,0,1,0,36.28,36.28h0A36.28,36.28,0,0,0,471.58,418.47Zm0,44a7.67,7.67,0,1,1,7.67-7.67h0a7.7,7.7,0,0,1-7.67,7.65Z"/><path class="cls-9" d="M361.78,146.2a33.36,33.36,0,1,0,33.36,33.38A33.36,33.36,0,0,0,361.78,146.2Zm0,40.3a6.93,6.93,0,1,1,6.93-6.93A6.93,6.93,0,0,1,361.78,186.5Z"/><circle class="cls-7" cx="579.48" cy="417.59" r="24.38"/><path class="cls-5" d="M374.93,670.64V527.17l30.06-37,11.17,26-17.72,20.23.68,134.12"/><path class="cls-1" d="M360.08,670.64H335.52q.18-106.82.37-213.65l33.71-73.28,14.67,23.09-24.91,60.84"/><path class="cls-2" d="M320.88,670.64H298.15L300,478.25l-21.61-35.18,13.57-21.26L322,466.88"/><path class="cls-9" d="M280.93,670.64H257.84l1.47-125.7L239.15,509l13.57-21.61,28.21,46.9"/></g><g id="TreeBranches-2" data-name="TreeBranches"><rect class="cls-5" x="1735.86" y="269.88" width="3.18" height="89.76"/><rect class="cls-5" x="1694.18" y="274.17" width="3.18" height="99.27" transform="translate(124.55 1039.17) rotate(-35.29)"/><rect class="cls-5" x="1582.36" y="336.97" width="107.13" height="3.18" transform="translate(956.37 1864.68) rotate(-77.69)"/><rect class="cls-5" x="1603.37" y="82.99" width="3.18" height="89.76" transform="translate(1303.68 1709.47) rotate(-83.77)"/><rect class="cls-5" x="1493.59" y="52.85" width="3.18" height="103.54" transform="translate(970.7 1508.7) rotate(-73.52)"/><rect class="cls-5" x="1426.3" y="173.24" width="135.15" height="3.18" transform="translate(233.39 995.44) rotate(-39.74)"/><rect class="cls-5" x="1421.47" y="118.04" width="3.18" height="89.76" transform="translate(-9.02 134.64) rotate(-5.4)"/><rect class="cls-5" x="1284.89" y="133.26" width="114.21" height="3.18" transform="translate(190.3 836.8) rotate(-37.1)"/><rect class="cls-5" x="1355.23" y="143.23" width="3.18" height="119.66" transform="translate(713.13 1414.61) rotate(-70.53)"/><rect class="cls-5" x="1313.15" y="183.25" width="3.18" height="89.76" transform="translate(69.96 708.85) rotate(-30.96)"/><rect class="cls-5" x="1345.78" y="255.49" width="89.76" height="3.18" transform="translate(135.17 908.05) rotate(-37.88)"/><rect class="cls-5" x="1473.5" y="211.12" width="3.18" height="89.76" transform="matrix(0.57, -0.82, 0.82, 0.57, 424.32, 1322.45)"/><rect class="cls-5" x="1278.74" y="334.04" width="89.76" height="3.18" transform="translate(400.95 1342.26) rotate(-61.72)"/><rect class="cls-5" x="1221.59" y="319.51" width="3.18" height="89.76" transform="translate(457.94 1385.85) rotate(-69.75)"/><rect class="cls-5" x="1164.98" y="307.3" width="89.76" height="3.18" transform="translate(147.34 964.81) rotate(-46.01)"/><rect class="cls-5" x="1217.45" y="233.42" width="3.18" height="48.51" transform="translate(159 912.49) rotate(-43.64)"/><rect class="cls-5" x="1283.22" y="236.16" width="3.18" height="89.76" transform="translate(921.88 1545.16) rotate(-86.32)"/><rect class="cls-5" x="1217.27" y="226.55" width="89.76" height="3.18" transform="translate(546.69 1292.64) rotate(-66.34)"/><rect class="cls-5" x="1194.4" y="199.18" width="89.76" height="3.18" transform="translate(44.6 586.59) rotate(-27.1)"/><rect class="cls-5" x="1259" y="274.46" width="3.18" height="89.76" transform="translate(-9.95 596.47) rotate(-26.52)"/><rect class="cls-5" x="1135.32" y="289.78" width="89.76" height="3.18" transform="translate(785.28 1441.07) rotate(-84.91)"/><rect class="cls-5" x="1702.61" y="149.35" width="3.18" height="101.32" transform="translate(171.62 971.69) rotate(-33.42)"/><rect class="cls-5" x="1600.68" y="123.48" width="3.18" height="129.14" transform="translate(180.17 949.8) rotate(-34.87)"/><rect class="cls-5" x="1492.28" y="191.12" width="115.04" height="3.18" transform="translate(1220.09 1719.25) rotate(-84.9)"/><rect class="cls-5" x="1613.23" y="197.83" width="89.76" height="3.18" transform="translate(1339.5 1838.8) rotate(-85.86)"/><rect class="cls-5" x="1655.92" y="258.07" width="89.76" height="3.18" transform="translate(-16.12 370.68) rotate(-12.38)"/><rect class="cls-5" x="1554.3" y="280.42" width="89.76" height="3.18" transform="translate(-24.6 297.28) rotate(-10.54)"/><rect class="cls-5" x="1625.89" y="395.83" width="89.76" height="3.18" transform="translate(-46.35 367.45) rotate(-12.38)"/><rect class="cls-5" x="1585.46" y="318.42" width="3.18" height="89.76" transform="matrix(0.83, -0.55, 0.55, 0.83, 62.32, 934.17)"/></g><g id="Logo-2" data-name="Logo"><path class="cls-6" d="M1481.15,293.4v0a49,49,0,1,0,49-49A49,49,0,0,0,1481.15,293.45Zm38.06,0h0a10.94,10.94,0,1,1,10.94,10.94A10.94,10.94,0,0,1,1519.21,293.4Z"/><circle class="cls-7" cx="1653.6" cy="263.84" r="29.58"/><circle class="cls-8" cx="1618.64" cy="408.64" r="20.96"/><circle class="cls-9" cx="1742.04" cy="387.68" r="30.78"/><circle class="cls-7" cx="1735.84" cy="252.17" r="20.98"/><circle class="cls-6" cx="1556.68" cy="122.93" r="18.32"/><circle class="cls-6" cx="1351.21" cy="286.83" r="34.44"/><circle class="cls-7" cx="1284.82" cy="178.18" r="19.03"/><circle class="cls-8" cx="1429.47" cy="228.18" r="21.57"/><path class="cls-8" d="M1663.29,107.25a27.92,27.92,0,1,0,27.89,27.94,27.94,27.94,0,0,0-27.89-27.94Zm0,34.2h-.2a6.08,6.08,0,0,1-5.91-6.25v0a6.11,6.11,0,1,1,6.11,6.11Z"/><path class="cls-8" d="M1187.48,200.82a27.36,27.36,0,1,0,27.36,27.36,27.36,27.36,0,0,0-27.36-27.36ZM1181,228.18v0a6.47,6.47,0,1,1,6.45,6.5A6.47,6.47,0,0,1,1181,228.16Z"/><circle class="cls-9" cx="1239.24" cy="277.5" r="15.93"/><path class="cls-9" d="M1253.46,387.68h0a40.3,40.3,0,1,0,40.3-40.3A40.3,40.3,0,0,0,1253.46,387.68Zm40.3,8.52a8.55,8.55,0,0,1-8.52-8.5h0a8.52,8.52,0,1,1,8.52,8.52Z"/><path class="cls-9" d="M1378.69,82a37.05,37.05,0,1,0,37.05-37.08A37.05,37.05,0,0,0,1378.69,82ZM1408,82a7.69,7.69,0,1,1,7.69,7.69A7.69,7.69,0,0,1,1408,82Z"/><circle class="cls-7" cx="1173.9" cy="346.4" r="27.09"/><path class="cls-5" d="M1374.27,627.39l.76-149-19.69-22.47,12.41-28.9,33.39,41.11V627.52"/><path class="cls-1" d="M1418.43,402l-27.67-67.59L1407,308.76l37.44,81.41q.22,118.68.42,237.34h-27.28"/><path class="cls-2" d="M1460,401.16l33.39-50.07,15.07,23.62-24,39.08,2,213.72h-25.26"/><path class="cls-9" d="M1505.55,476.08l31.34-52.1L1552,448l-22.4,39.89,1.64,139.64h-25.65"/></g><path class="cls-1" d="M148.08,450l-.49-1.22-.76.46-.76-.46-.49,1.22-44.46,27.4-51,31.45L0,539.71,35.49,555l8-4.86v216.7h64.19v0h82v0h66.42V553.79l7.51,2,37.05-14.95ZM102,603.38H66.22v-35.8H102Zm30.41-35.8h35.82v35.8H132.43Zm102,35.8H198.66v-35.8h35.82Z"/><rect id="_Path_13" data-name="&lt;Path&gt;" class="cls-4" x="107.69" y="613.76" width="80.55" height="144.36"/><path id="_Path_14" data-name="&lt;Path&gt;" class="cls-6" d="M552.44,592.66l-40.89-71.1H268l-33.77,71.1h20.43v168a6.3,6.3,0,0,0,6.23,6.23H530.22a5.76,5.76,0,0,0,4.21-1.67l.17-.17a1.26,1.26,0,0,0,.15-.18,5.68,5.68,0,0,0,1.67-4.2v-168Z"/><path id="_Path_15" data-name="&lt;Path&gt;" class="cls-4" d="M524,754.41H480.45V687.76H308v66.65H267.15V592.66H524Z"/><g id="_Group_6" data-name="&lt;Group&gt;"><rect id="_Path_16" data-name="&lt;Path&gt;" class="cls-6" x="287.6" y="613.1" width="54.42" height="54.41"/><rect id="_Path_17" data-name="&lt;Path&gt;" class="cls-6" x="444.91" y="613.1" width="54.43" height="54.41"/><rect id="_Path_18" data-name="&lt;Path&gt;" class="cls-6" x="367.58" y="613.1" width="54.42" height="54.41"/></g><path id="_Path_19" data-name="&lt;Path&gt;" class="cls-9" d="M817.74,581l-43.62-75.86H621.47V472.94H563.65v32.23H549.42L513.4,581H535.2V760.21a6.7,6.7,0,0,0,6.65,6.65H794a6.12,6.12,0,0,0,4.5-1.79,1.75,1.75,0,0,1,.19-.17l.16-.19a6.09,6.09,0,0,0,1.8-4.51V581Z"/><path id="_Path_20" data-name="&lt;Path&gt;" class="cls-1" d="M787.41,753.58H548.48V581H787.41Z"/><g id="_Group_7" data-name="&lt;Group&gt;"><rect id="_Path_21" data-name="&lt;Path&gt;" class="cls-4" x="564.04" y="598.36" width="30.3" height="30.32"/><rect id="_Path_22" data-name="&lt;Path&gt;" class="cls-4" x="606.88" y="598.36" width="30.32" height="30.32"/><rect id="_Path_23" data-name="&lt;Path&gt;" class="cls-4" x="649.75" y="598.36" width="30.3" height="30.32"/><rect id="_Path_24" data-name="&lt;Path&gt;" class="cls-4" x="692.6" y="598.36" width="30.31" height="30.32"/><rect id="_Path_25" data-name="&lt;Path&gt;" class="cls-4" x="735.46" y="598.36" width="30.3" height="30.32"/><rect id="_Path_26" data-name="&lt;Path&gt;" class="cls-4" x="564.04" y="637.92" width="30.3" height="30.31"/><rect id="_Path_27" data-name="&lt;Path&gt;" class="cls-4" x="606.88" y="637.92" width="30.32" height="30.31"/><rect id="_Path_28" data-name="&lt;Path&gt;" class="cls-4" x="649.75" y="637.92" width="30.3" height="30.31"/><rect id="_Path_29" data-name="&lt;Path&gt;" class="cls-4" x="692.6" y="637.92" width="30.31" height="30.31"/><rect id="_Path_30" data-name="&lt;Path&gt;" class="cls-4" x="735.46" y="637.92" width="30.3" height="30.31"/><rect id="_Path_31" data-name="&lt;Path&gt;" class="cls-4" x="564.04" y="677.48" width="30.3" height="30.31"/><rect id="_Path_32" data-name="&lt;Path&gt;" class="cls-4" x="606.88" y="677.48" width="30.32" height="30.31"/><rect id="_Path_33" data-name="&lt;Path&gt;" class="cls-4" x="649.75" y="677.48" width="30.3" height="30.31"/><rect id="_Path_34" data-name="&lt;Path&gt;" class="cls-4" x="692.6" y="677.48" width="30.31" height="30.31"/><rect id="_Path_35" data-name="&lt;Path&gt;" class="cls-4" x="735.46" y="677.48" width="30.3" height="30.31"/></g><polygon id="_Path_36" data-name="&lt;Path&gt;" class="cls-5" points="1652.82 516.25 1652.28 514.96 1651.5 515.45 1650.71 514.96 1650.17 516.25 1497.74 610.23 1534.89 626.27 1543.27 621.18 1543.27 766.87 1765.92 766.87 1765.92 624.96 1773.8 627.05 1812.6 611.39 1652.82 516.25"/><polygon id="_Path_37" data-name="&lt;Path&gt;" class="cls-1" points="1749.06 749.44 1689.18 749.44 1689.18 689.71 1614.98 689.71 1614.98 749.44 1560.14 749.44 1560.14 610.93 1651.5 555.42 1749.06 614.72 1749.06 749.44"/><g id="_Group_8" data-name="&lt;Group&gt;"><rect id="_Path_38" data-name="&lt;Path&gt;" class="cls-4" x="1579.55" y="631.4" width="42.16" height="43.52"/><rect id="_Path_39" data-name="&lt;Path&gt;" class="cls-4" x="1685.82" y="631.4" width="42.15" height="43.52"/></g><rect id="_Path_40" data-name="&lt;Path&gt;" class="cls-8" x="1425.79" y="497.74" width="118.68" height="269.13"/><rect id="_Path_41" data-name="&lt;Path&gt;" class="cls-4" x="1445.92" y="533.76" width="23.3" height="23.31"/><rect id="_Path_42" data-name="&lt;Path&gt;" class="cls-4" x="1497.84" y="533.76" width="23.32" height="23.31"/><rect id="_Path_43" data-name="&lt;Path&gt;" class="cls-4" x="1445.92" y="580.37" width="23.3" height="23.32"/><rect id="_Path_44" data-name="&lt;Path&gt;" class="cls-4" x="1497.84" y="580.37" width="23.32" height="23.32"/><rect id="_Path_45" data-name="&lt;Path&gt;" class="cls-4" x="1445.92" y="626.99" width="23.3" height="23.31"/><rect id="_Path_46" data-name="&lt;Path&gt;" class="cls-4" x="1497.84" y="626.99" width="23.32" height="23.31"/><rect id="_Path_47" data-name="&lt;Path&gt;" class="cls-4" x="1445.92" y="673.61" width="23.3" height="23.31"/><rect id="_Path_48" data-name="&lt;Path&gt;" class="cls-4" x="1497.84" y="673.61" width="23.32" height="23.31"/><g id="_Group_9" data-name="&lt;Group&gt;"><path id="_Path_49" data-name="&lt;Path&gt;" class="cls-9" d="M1335.42,523.87v243H1234.71V485.54h100.72Z"/></g><g id="_Group_10" data-name="&lt;Group&gt;"><rect id="_Path_50" data-name="&lt;Path&gt;" class="cls-1" x="1248.3" y="504.34" width="18.45" height="18.45"/><rect id="_Path_51" data-name="&lt;Path&gt;" class="cls-1" x="1275.97" y="504.34" width="18.45" height="18.45"/><rect id="_Path_52" data-name="&lt;Path&gt;" class="cls-1" x="1303.65" y="504.34" width="18.45" height="18.45"/><rect id="_Path_53" data-name="&lt;Path&gt;" class="cls-1" x="1248.3" y="530.96" width="18.45" height="18.46"/><rect id="_Path_54" data-name="&lt;Path&gt;" class="cls-1" x="1275.97" y="530.96" width="18.45" height="18.46"/><rect id="_Path_55" data-name="&lt;Path&gt;" class="cls-1" x="1303.65" y="530.96" width="18.45" height="18.46"/><rect id="_Path_56" data-name="&lt;Path&gt;" class="cls-1" x="1248.3" y="557.6" width="18.45" height="18.45"/><rect id="_Path_57" data-name="&lt;Path&gt;" class="cls-1" x="1275.97" y="557.6" width="18.45" height="18.45"/><rect id="_Path_58" data-name="&lt;Path&gt;" class="cls-1" x="1303.65" y="557.6" width="18.45" height="18.45"/><rect id="_Path_59" data-name="&lt;Path&gt;" class="cls-1" x="1248.3" y="584.23" width="18.45" height="18.45"/><rect id="_Path_60" data-name="&lt;Path&gt;" class="cls-1" x="1275.97" y="584.23" width="18.45" height="18.45"/><rect id="_Path_61" data-name="&lt;Path&gt;" class="cls-1" x="1303.65" y="584.23" width="18.45" height="18.45"/><rect id="_Path_62" data-name="&lt;Path&gt;" class="cls-1" x="1248.3" y="610.85" width="18.45" height="18.45"/><rect id="_Path_63" data-name="&lt;Path&gt;" class="cls-1" x="1275.97" y="610.85" width="18.45" height="18.45"/><rect id="_Path_64" data-name="&lt;Path&gt;" class="cls-1" x="1303.65" y="610.85" width="18.45" height="18.45"/><rect id="_Path_65" data-name="&lt;Path&gt;" class="cls-1" x="1248.3" y="637.47" width="18.45" height="18.46"/><rect id="_Path_66" data-name="&lt;Path&gt;" class="cls-1" x="1275.97" y="637.47" width="18.45" height="18.46"/><rect id="_Path_67" data-name="&lt;Path&gt;" class="cls-1" x="1303.65" y="637.47" width="18.45" height="18.46"/><rect id="_Path_68" data-name="&lt;Path&gt;" class="cls-1" x="1248.3" y="664.1" width="18.45" height="18.45"/><rect id="_Path_69" data-name="&lt;Path&gt;" class="cls-1" x="1275.97" y="664.1" width="18.45" height="18.45"/><rect id="_Path_70" data-name="&lt;Path&gt;" class="cls-1" x="1303.65" y="664.1" width="18.45" height="18.45"/><rect id="_Path_71" data-name="&lt;Path&gt;" class="cls-1" x="1248.3" y="690.73" width="18.45" height="18.45"/><rect id="_Path_72" data-name="&lt;Path&gt;" class="cls-1" x="1275.97" y="690.73" width="18.45" height="18.45"/><rect id="_Path_73" data-name="&lt;Path&gt;" class="cls-1" x="1303.65" y="690.73" width="18.45" height="18.45"/></g><rect id="_Path_74" data-name="&lt;Path&gt;" class="cls-6" x="1336.02" y="579.35" width="89.95" height="187.41"/><g id="_Group_11" data-name="&lt;Group&gt;"><rect id="_Path_75" data-name="&lt;Path&gt;" class="cls-4" x="1351.8" y="703.51" width="59.95" height="14.67"/><rect id="_Path_76" data-name="&lt;Path&gt;" class="cls-4" x="1351.8" y="638.26" width="59.95" height="14.68"/><rect id="_Path_77" data-name="&lt;Path&gt;" class="cls-4" x="1351.8" y="681.76" width="59.95" height="14.69"/><rect id="_Path_78" data-name="&lt;Path&gt;" class="cls-4" x="1351.8" y="660.02" width="59.95" height="14.69"/><rect id="_Path_79" data-name="&lt;Path&gt;" class="cls-4" x="1351.8" y="616.53" width="59.95" height="14.67"/><rect id="_Path_80" data-name="&lt;Path&gt;" class="cls-4" x="1351.8" y="594.78" width="59.95" height="14.68"/></g><path id="_Path_81" data-name="&lt;Path&gt;" class="cls-1" d="M1805.21,779.69a21.56,21.56,0,0,1-21.57,21.56H29A21.56,21.56,0,0,1,7.39,779.69h0A21.57,21.57,0,0,1,29,758.12H1783.64a21.57,21.57,0,0,1,21.57,21.57Z"/><g id="_Group_12" data-name="&lt;Group&gt;"><path class="cls-6" d="M369.37,191.93a20.44,20.44,0,0,1-1.64-8.68c0-15.41,12.74-28.34,26.73-28.34,7.72,0,15.15,1.82,20.21,6.88,5.2-16.13,20.57-26.9,38.45-26.9,15.64,0,30.62,10.4,37.26,23.42a28.12,28.12,0,0,1,5.13-.82c11.81,0,20.94,8.61,20.94,20.41a24,24,0,0,1-2,8.85c8.47,6.33,13.18,16.59,13.18,28a34.67,34.67,0,0,1-1.07,8.34c-1.44,10.58-17.4,28.13-34.54,28.13H378.39c-17.7,0-32.05-13.22-32.05-29.51C346.33,208.38,356.2,195.58,369.37,191.93Z"/></g></g></g></svg>