<svg id="Capa_1" data-name="Capa 1" xmlns="http://www.w3.org/2000/svg" viewBox="0 0 247.71 238.36"><defs><style>.cls-1{fill:#32afc0;}.cls-1,.cls-4{stroke:#072b48;stroke-miterlimit:10;stroke-width:2px;}.cls-2{fill:#c23a27;}.cls-3{fill:#f9a451;}.cls-4{fill:none;}</style></defs><title>Logo</title><path class="cls-1" d="M1242.13,1128l-12.44,22.73-2.22,4.06-4.4,8-4.06,7.43-3.13,5.72-55.81,1.67,16.89-10.81s-.39-.86-1.09-2.37c-.36-.77-.79-1.7-1.3-2.77-1.35-2.84-3.19-6.67-5.37-11-9.25-18.37-24.44-45.7-32.36-44.23l0-1,61.21-.16a17.92,17.92,0,0,1,11.7,5.56,16.88,16.88,0,0,1,2.68,3.89c4.65,9.22,12.34,21.46,12.34,21.46Z" transform="translate(-1030.5 -1104.35)"/><path id="svg_117" data-name="svg 117" class="cls-2" d="M1173.68,1133.32l-1.2-.28-.95-.16-.64.2-.36.52-.47.51c.12-.11.43-.11.36.09a1.33,1.33,0,0,1-.41.39h-.47l-.4-.24-.6.08-.2.36.24.56-.4.4.48.4.48.11-.08.56-.52.24-.68.44-.2.76.6.36,1,.2,1-.24.84-.48.24-.24,1.39-.08.16-.59.32-.6v-1.72l.76-.44Zm8.56,3.39c0-.12-.59-.09-.75-.12a5.07,5.07,0,0,0-.84,0l0-.79s-1.83-2.5-1.83-2.67a1.78,1.78,0,0,0-.64-.91,1.28,1.28,0,0,1-.68-.52c-.23-.32.32-.72.32-.72a10.1,10.1,0,0,0,.76-.88.76.76,0,0,0-.2-.67c-.12,0-1.51,0-1.51,0s-.4-.32-.36-.44.44-.16.56-.16.83-1.39,1-1.43-.12-.4-.12-.4l-.55.23-.52.76a1.25,1.25,0,0,1-.68,0c-.2-.12-.6,0-.76,0s-.52.48-.52.48a3.9,3.9,0,0,1-.71.64,2.23,2.23,0,0,0-.68.71,3.14,3.14,0,0,1,.08.56.55.55,0,0,1-.32.24c-.2,0,.16.72.16.72l.48.24s-.28.27-.44.24-.52.4-.24.51.39.28.36.4.59.2.59.2l.52-.12-.35.56a1.66,1.66,0,0,0,.19.52c.12.16.52,0,.52,0a7.39,7.39,0,0,1,1.08-.12c.12,0,0,.4,0,.4l.36.55s.19.8.23,1-.31.16-.31.16a5.12,5.12,0,0,1-.92.08c-.16,0-.48.28-.75.59s0,.2,0,.2h.59s0,.4.08.57-.48.31-.63.27a3.15,3.15,0,0,0-.88.32l0,.6.88.08.87.12.16.28s-.56.12-.72,0-.63.63-.63.63l-.44.48-.92.72.52.24.32-.4.8,0,.87-.12s.52-.64.64-.64l1.35,0a4.58,4.58,0,0,1,1.12-.12,9.4,9.4,0,0,0,1,.28,14.36,14.36,0,0,0,1.67-.44s.32-.51.39-.67-.43-.32-.55-.44.4-.28.64-.4.31-.56.44-.75S1182.28,1136.83,1182.24,1136.71Zm35.67,33.89c-.23.42-1.78.12-2,0s-3.16-1.31-3.4-1.37a15.67,15.67,0,0,1-2-.89c-.24-.19-1.73-.37-1.79-.55s.12-.41-.12-.35a15.31,15.31,0,0,0-2.21.77c-.24.18-.77.66-.77.66s-.72.72-.66,1.25.71,1,.48,1.26a3.82,3.82,0,0,1-1.08.65,8.69,8.69,0,0,0-1.19-1c-.3-.12-3.11-.54-3.11-.54l-1.13-1.31s-1.8-1.2-2-1.26a12.79,12.79,0,0,1-2.45-.23c-.3-.25-1.25-1.5-1.73-1.44s-.3-.72-.12-.83a3,3,0,0,0,.66-1.32c-.06-.18.3-1.19-.3-1.49s-.18-1.32-.18-1.32.6-.12.36-.12-1.14.06-1.38-.24-.3-.41-.53-.3a7.55,7.55,0,0,1-1.92.3c-.18-.06-1.61.12-1.85.12s.06.06-.24,0a2.67,2.67,0,0,0-1.55.72c-.06.24-1.25-.06-1.43,0s-1.92.06-1.92.06l-2.87.48s-1.91,1-2,1.26-.66.77-.83.89a1.67,1.67,0,0,1-.82,0c.7,1.51,1.09,2.37,1.09,2.37l-16.89,10.81,55.81-1.67,3.13-5.72C1218.5,1170.34,1218,1170.42,1217.91,1170.6Zm6.84-34.34s-7.69-12.24-12.34-21.46a16.88,16.88,0,0,0-2.68-3.89c-.4.22-.92.47-.92.47l-2.39-.4-3.07.71-3.11.76-4.49,1.91,1.67.16-.72,1.23-2,1.48-1.12,1.83-.16,1-1.07,1.15a7.26,7.26,0,0,1-.91-.55,13.66,13.66,0,0,0-2.8.75l-1.59,1.51s-.39.76-.47,1a17.87,17.87,0,0,0,.11,2.31s1,0,.68.28-.24,1.56-.24,1.56l1.12.75a11,11,0,0,0,1.67.44,6.45,6.45,0,0,0,1-.6c.11-.08,1-1,1.27-.92s1-.76,1.08-.47a10.44,10.44,0,0,0,.39,1.51,6.25,6.25,0,0,1,1,1.23c.23.56.56,1.12.48,1.24s-.64.67-.64.67a5,5,0,0,0-1.35.33c-.16.15-.36.23-.48.15s.4-.64.52-.79-.28-.8-.44-.76-.32-.36-.16-.48.12-.87.12-.87-.24-.12-.36-.08l-1.51.59a7.22,7.22,0,0,0-.8,1,3,3,0,0,0-.16,1.59,15.82,15.82,0,0,0,.68,1.56s.51.35.32.52a4.76,4.76,0,0,0-.6.75l-1,0s-1.71.2-1.87.28-1.83.6-1.75.76a11.09,11.09,0,0,1-.36,1.87,18.16,18.16,0,0,1-1.95,1.24c-.2,0-1.44.31-1.44.31a12,12,0,0,1-.59,1.4,14.54,14.54,0,0,0-1.88.87s-1.39-.4-1.43-.56-.52-.51-.56-.39.48,1.36.48,1.59.08.72-.08.56a7,7,0,0,0-1.11-.48,10.15,10.15,0,0,0-1.52,0h-.56s-.68.6-.72.48-.07.52-.07.52l.39.4,1.44.59,1.35.84.52,1.27.6,1.2s-.4,2.47-.48,2.59a8.84,8.84,0,0,1-.92.68l-2.59,0s-1.27-.27-1.39-.31-1.91.23-2,.08-.6-.13-.6-.13l-.28-.31h-.72l-.09.1c2.18,4.32,4,8.15,5.37,11l1.52-.28,1.26-.83.77-.3.47-1.25s.9-.18.84-.36-.29-1-.29-1l1.73-2.69,2.45-1.19.41-.84s-.23-1.07-.05-1.26a9.42,9.42,0,0,1,1.79-.54l2,.66s1.07-.71,1.31-.83,1.38-.78,1.38-.78.11-.54.35-.48,1.26-.18,1.38.3a14.27,14.27,0,0,0,1,2l1.37,1.43,1.32,1,1.61.59a10.59,10.59,0,0,0,1.13.9,9.12,9.12,0,0,1,1.08,1.08l.47.83a5.75,5.75,0,0,1-.53,1c-.24.29-1,1.07-1.14,1s-1.55-.29-1.55-.29l-1.5.17a.48.48,0,0,0,.19.66c.41.3.89.24,1.31.48s1.5.72,1.5.72.71.11.71.29.24-.48.18-.89-.12-1,.3-1.08,1.07,0,1.07-.18a.9.9,0,0,1,.19-.42l.53-.65-.06-.42.54-.42-.54-.66c-.23-.3-.47-.48-.3-.77s.78-.72,1.08-.48,1.19.36,1.13.66,0,.71.13.47a4.74,4.74,0,0,0,.06-1.19s-.48-.66-.9-.72a13.76,13.76,0,0,1-1.8-.71c-.29-.12-.83-.42-.83-.42s.24-.66-.12-.6-1.43-.12-1.43-.3-1.08-1-1.13-1.19-1-1.5-1-1.5a4.16,4.16,0,0,1-.6-.72c-.06-.18-.12-.47-.24-.95s1.19-1.67,1.13-1.5.3.42.55,1,1.19,1.43,1.31,1.79a5.72,5.72,0,0,0,1.73,1.49c.3.12.47.48,1.07.72s.55.36,1.32.72.9.48,1,.66.6.12.78.42.42.35.42.65.24.3.12.9-.3.77-.24.89,1.14,2.34,1.56,2.34,1.67.47,1.49,1.19.77,1.67.77,1.67.8,0,1.35.14c0-.41-.06-1.08.39-1.33s1.31-.6,1.19-.9a2.31,2.31,0,0,0-.72-1.19c-.47-.36-1-.55-1.07-1.14s-.3-1.38.24-1.14,1,1.38,1.26.6.83-1.31,1.25-1.13,1.2.47,1.14.71a13.13,13.13,0,0,0,.53,2.16s.24.18.36,1.07.89,1.14.78,1.43-.48.48.48.6,1.85.3,1.85.54.77.36.89.54.84.53,1,.18.36-1.08.54-1,1.67.12,1.79.6,1.14.47,1.14.6.3,0,.55-.15l4.4-8-1.31-.48a5,5,0,0,1-1.08-.48,7.7,7.7,0,0,0-1.31-.6l-2.39.54-1.86.54-.65.6-2.21-.54-1.31-.65-.72-.78h.65l-.23-1,.11-.65.6-.37.42-1.73.72-.3.18-.89s.6-.54.78-.72.77-1,.77-1l1.43.6s1.5.18,1.26.24-1,.9-1,.9.54.3.79.48.77.47.65.83.89.3.89.3l.36-.59,1.67-.42.6-.3-1-.3s-.83-.3-.71-.48l.9-1.37s2-.6,2.15-.6,1.37-.24,1.37-.24-1,1-1.08,1.14.07.77-.23,1a3.9,3.9,0,0,1-.9.54c-.18.06-.06.66.12.72l.78.3,2.63,1.37.3.3,12.44-22.73Zm-11.91-9.59c-.12.08-.52.4-.76.32s-.4,0-.72-.08a5.4,5.4,0,0,0-1.08-.28c-.16,0-2,.44-2,.44l-1,.28-.16.56.12.11,1,.6c0,.2.4.08.31.56a2.94,2.94,0,0,1-.23.91c-.13.24-.6.68-.72.4a3.65,3.65,0,0,0-.88-.91c-.15-.12-.63,0-.92,0a1,1,0,0,0-.83.83c0,.44-.28,1-.16,1.43s.64,1,.4,1.28a3.56,3.56,0,0,1-1,.6c-.24.12-.8.52-1,.6s-.8.31-.92,0-.36-.72-.36-.72-.2-.4-.28-.28-.51.16-.51.16l-1,.4-.67.48c-.13.08-.72.08-1,.19s-1,.72-1.16.44-.31.2-.56-.24-.16-.91-.44-.83-.91.24-1,.4-.16.16-.31.32a5.23,5.23,0,0,1-1.32.27v-.08l1.31-1.11.28-1.08s1.23.2,1.27.36.32-.36.64-.08.72.24.76.48.28.52.32.36a6.53,6.53,0,0,0,0-.68l-.55-.32a.37.37,0,0,1,0-.59c.19-.12.75-.45.91-.33s.88-.15.88-.15a3.22,3.22,0,0,1,.2-.36c.08-.13.48-1.2.48-1.2a.69.69,0,0,1-.36-.48,2.66,2.66,0,0,1,.56-1.43c.11,0,1.67-1,1.67-1s.6-.64.36-.83-2-1.08-2-1.28a6.81,6.81,0,0,1-.08-1.63,6.63,6.63,0,0,1,.95-1.32c.12-.15,1-1.23,1.16-1.19a2.4,2.4,0,0,0,.91-.16c.17-.08,1.56-.72,1.32-.76s.08-.75,0-.71.12-.92.4-1,.75-.44.88-.44,1.07,0,1.31.08,1.07-.35,1.19,0,.44.44.16.56a8.6,8.6,0,0,0-1.31,1,11.54,11.54,0,0,1-1.76,1.2,2.37,2.37,0,0,0-.56.32c-.31.2-.31-.28-.39.48a4.93,4.93,0,0,0,0,1.87c.16.28.27.72.12.92s0,.32,0,.67.52.52.56.68.67.48.67.48c.32,0,.69-.08.76.08a.18.18,0,0,0,.24.08l.67-.16s.68-.4.92-.36.56-.08.84,0a15.22,15.22,0,0,0,1.63-.28c.16,0,1.27-.44,1.36-.28s.68.12.68.12l.47.36A2,2,0,0,1,1212.84,1126.67Z" transform="translate(-1030.5 -1104.35)"/><path class="cls-1" d="M1149.7,1138.53l-29.85,51.55-18-10.46-2.74-1.6-1.63-.94-23.28-13.56-3.89-2.26s17.61-29.22,20.93-34.87,6.95-17.43,24.64-19.55c19.79-2.35,28.09,17.23,28.09,17.23Z" transform="translate(-1030.5 -1104.35)"/><path class="cls-1" d="M1118.33,1238.78l-17.94-9s-6.33,9.09-13.4,20.56l-.8,1.32c-2.06,3.36-4.15,6.9-6.15,10.45a177.68,177.68,0,0,0-8.18,16.1q-1,2.22-1.71,4.26c-.42,1.15-.79,2.25-1.08,3.3-1.26,4.34-1.42,7.7.07,9.41l-.86.52-9.58-15.95-2.11-3.5h0l-4.47-7.45-.88-1.46-.37-.62a0,0,0,0,0,0,0l-1.49-2.49-12.6-21a16.67,16.67,0,0,1-1.49-4.2,16.93,16.93,0,0,1,2.22-13c5.53-8.7,12.11-21.61,12.11-21.61l-16-10.7,53.48-2,1.18,0Z" transform="translate(-1030.5 -1104.35)"/><path class="cls-1" d="M1150.23,1324.24s-19.84.68-32.29,1c-4,.12-7.21.2-8.79.22a57.26,57.26,0,0,1-9.62-.28h-.09c-5.84-.85-12.7-3.64-19.31-12.21a25.42,25.42,0,0,1-4-7.27c-2.46-7.06-1.09-13.83.73-18.64.19-.49.38-1,.58-1.41a30.74,30.74,0,0,1,3.05-5.61l1.63-2.11,2.45-3.18,2-2.63.82-1.07,2.57-3.33,59.55-.79Z" transform="translate(-1030.5 -1104.35)"/><path class="cls-1" d="M1266.64,1256.33l-21.53,42-.13.24-.45.89-5.82,11.34s-4.68,8.55-15,8.46c-1.58,0-3.25,0-5,0-9.43.2-19.78,1.08-19.78,1.08l-.67,19.24-30.6-45.34,10.13-21.17,1.44-3,1.4-2.93,11.14-23.27,1.85,19.95s15.14.8,31.55.45c18.51-.4,38.64-2.27,40.51-8.41Z" transform="translate(-1030.5 -1104.35)"/><path class="cls-1" d="M1275,1237.14c-7,18.67-28.19,17-28.19,17l-10.43-1-5-.51L1203,1208.35l-3.77-5.89,48.32-30.76s7.44,12.08,13.66,22.14l3.11,5c2.08,3.36,3.78,6.08,4.63,7.42C1272.48,1211.82,1281.27,1220.44,1275,1237.14Z" transform="translate(-1030.5 -1104.35)"/><path id="svg_117-2" data-name="svg 117" class="cls-3" d="M1090.6,1270.06a8.47,8.47,0,0,1-2,1.19,4.07,4.07,0,0,1-1.16-.17l-.82,1.07a10.61,10.61,0,0,0,1.34.53c.72.24,1.43-.47,1.59-.31s.88-.56.88-.56.55-.8.48-1S1090.76,1269.82,1090.6,1270.06Zm-3.57,8c-.57-.64.15-.79-.41-1.52s-.79-.47-.55-.71a6.82,6.82,0,0,1,1.11-.64,2.54,2.54,0,0,0,.72-.87c.08-.24.24-.16-.4-.32s-1.2-.32-1.59.16a1.57,1.57,0,0,1-.8.56l-.32.08a.18.18,0,0,1-.19-.06l-2.45,3.18a6.9,6.9,0,0,1,.49,1.82c-.08.39-.24,2.63,0,2.38a4.28,4.28,0,0,1,1.43-.39,7.87,7.87,0,0,0,.33-2.07c-.08-.64-.8-2.63-.17-2.47a3,3,0,0,1,1.28.95s-.48.48-.32.8.72.72.64,1.43.24,1,.24.8.8.16.88.32.82-.53.93-.52c0-.24.13-1.22-.06-1.47A7.36,7.36,0,0,0,1087,1278.1Zm31.86-106.44c-.28.08-.8-.32-.44-.39s1-.48.84-.56a8.1,8.1,0,0,0-1-.68,11.36,11.36,0,0,0-2.59-.56c-.19.08-3.19-.64-3.38-.64a12.46,12.46,0,0,1-1.24-.27l-10.19-2.75s-6.3-.68-6.3-.8-3.66-.44-3.66-.44l2.19,1.84-2.19-.32a26.51,26.51,0,0,1-2.79-.56c-.08-.12-7.57-.16-7.57-.16l-1.11-1.2s-3.59-.59-3.71-.63-.71,0-1.52,0l23.28,13.56a2.63,2.63,0,0,1,.53-.53,10.81,10.81,0,0,1-.82-1s.68-.76,1-.36a14.32,14.32,0,0,1,1.16,2.11s-.13.32-.27.7l2.74,1.6c-.19-.26-.36-.5-.4-.54a16.51,16.51,0,0,0,1.86-.64s.78-.07.85.23a1.61,1.61,0,0,0,.44.64l.84-.79s.59-.52.83-.41,1.4.37,1.56.52.87.35,1,.49c0-.17,0-.69,0-.69l0-.44,1.12-1.51s.43-.63.83-.72,1.24-.79,1.4-.67,1.48.08,1.64.44.87-.12.87-.12-.68-.84-.72-.76-2.23-.88-2.35-.83a13.07,13.07,0,0,1-1.59-.88s-.76-.28-.8-.28a6.62,6.62,0,0,1,.83-.4c.25-.08.8-.84.8-.84a4.19,4.19,0,0,0-.43-.67c-.17-.16.87,0,1.23.12s2.11.24,2.11.36,1.2.11,1.16.43.43.4.59.56a11.29,11.29,0,0,0,1.76.44c.07,0,1.59-.12,1.59.12s.48,0,.48,0S1119.17,1171.58,1118.89,1171.66Zm-20.85,4.89s.05,0,.05,0S1098.07,1176.53,1098,1176.55Zm-10.7,15.79-.24-.56-53.48,2,16,10.7s-6.58,12.91-12.11,21.61a16.93,16.93,0,0,0-2.22,13,1,1,0,0,1,.43-.57,6.87,6.87,0,0,1,1.28-.28s.2.52.08.6h0c.1,0,2-.61,2-.61s1,0,1.11,0,.64-.75.64-.75-.2-.64.07-.48,1,.88.89,1,.39.91.28,1.23,1.83,2.47,1.83,2.47,1-.44.87-.12-.27,1.32-.27,1.32a3.77,3.77,0,0,0,.83.43c.24,0,.92,1.36.92,1.36s-.16,1.19-.16,1.35.08,1.32,0,1.52,1.63.56,1.63.56,1.32-1.09,1.4-1.21,1.19-.68,1.23-1a20.49,20.49,0,0,1,.84,2.6l.56,2s.44,1.43.6,1.71a12.86,12.86,0,0,1,.39,2.27c0,.16.52,1.23.28,1.35s-.63,0-.56.2a5.79,5.79,0,0,1,.28,1.2,10.83,10.83,0,0,1-.19,1.43,3.3,3.3,0,0,0-.12,1c0,.24.15.69.15.8a.88.88,0,0,0,.12.32s.16.08.24-.12.68-.28.76-.2a8,8,0,0,1,1.08,1.48,15.48,15.48,0,0,0,1.19,2c.12.16.64.68.31,1.11s-.31.52-.27.76a3.78,3.78,0,0,0,.55,1.6c.41.47,1.24,1.39,1.24,1.39a12.25,12.25,0,0,1,1.2.92c.15.19,1.31.31,1.43.79a3.62,3.62,0,0,0,.44,1s.91.28.91.4a9.09,9.09,0,0,0-.11-1.68c-.12-.2-1.08-2.15-1.2-2.27a.91.91,0,0,1-.2-.91,8,8,0,0,0-.08-1.88l-1.87-2.23a19.63,19.63,0,0,0-1.67-1.51c0,.08-1.28-.48-1.23-1a3.23,3.23,0,0,0-.49-1.95c-.35-.28-.67-.72-.95-.88s-.08-1.67,0-1.87a17.76,17.76,0,0,0,.68-2.07,17.17,17.17,0,0,1,.16-1.75s.51-.68.63-.44.68,0,.52.72a3.22,3.22,0,0,0-.08,1.16l1.43-.29,1,1,.72,1,.92.55a5.33,5.33,0,0,0,.35,1.16c.13.08.72-.24.72-.24l.92.64s-.52,1-.4,1.2a5.63,5.63,0,0,1,.23,1.07l.88-.72,1.12-.84.56-.79.2-.6,1.59-.68,1.51-1.39,0-2.95-.48-1.83-1.36-1.91-2.63-2.63-1-1.28s-.72-.91-.68-1.15.19-1.51.19-1.51l.73-.68,1.39-1.4s1-.63,1.12-.47,1.43.12,1.47.23.2.09.12.32a3.33,3.33,0,0,0,.16,1.44,1.9,1.9,0,0,0,.52.28c.11,0,.51-.13.55-.36s0-1.08,0-1.28.12-.2.24-.24a4.26,4.26,0,0,1,.72,0l.64-.63,1.11.39,1.2-1s.64-.12.72,0,1.11-.8,1.11-.8l1.08-.24.95-.4a5.87,5.87,0,0,1,.4-.79c.11,0,2.31-2.31,2.31-2.31l.76-1.87.91-2.67.56-3.31,0-1s-.88.72-1,.76a3.8,3.8,0,0,1-.84-.16l.55-1s.32-.72.16-.76l-1-.28s.34-.78.39-.83-1.38-1.36-1.38-1.36-1.76-2.51-1.84-2.31-1.43-1-1.56-1-.19,0-.27-.19,1.2-1.92,1.23-2,1.16-1.35,1.36-1.31.87.08.87.08-.16-.8-.28-.84-2.82-.28-2.82-.28a6.24,6.24,0,0,0-1.12.8c0,.16-.91.08-.91.08l-.12-.92-1.08-.51-1.23-.44,0-.84s.75-.28.87-.36,1.08-.55,1.15-1a3.87,3.87,0,0,1,.81-1.15c.07-.12.59-.56.71-.48s.88.64.8.68-.6.88-.48,1.11.68,1,.6,1.08-.32.56-.32.56l.6-.08s.75-.6.71-.68.6-.75.72-.75,1.44-.29,1.47-.17a6.7,6.7,0,0,0,1.36.44l.24,2.39a19.34,19.34,0,0,1,3.19,1c0,.2-.36.51-.36.51s0,.64.12.72a4.52,4.52,0,0,1,.79.68,6.85,6.85,0,0,1,.36,1.24s-.43.95-.36,1.07.88.84.88.84l2.27-.88a9.79,9.79,0,0,0,1.23-1.07c0-.12-1.31-3.31-1.31-3.31l-3-2.08-1.31-1.07,1.83-1.79-.16-1.55a11.1,11.1,0,0,1,.48-1.52c.08,0,1.19-.79,1.19-.79l1.28.88,1.91-1.2,1.08-3.86,0-5Zm21.5-13.22s0,.06,0,0A0,0,0,0,0,1108.84,1179.12Zm-44.6,97.78-1,.16-.88-1.67s-1.51-1.19-2-1.51.72-1,.72-1a25.36,25.36,0,0,0-3-2.55,20.5,20.5,0,0,1-2.15-1.35,15.7,15.7,0,0,1-1.51-2.23l-5.07-2.54-.35-.17s-.72.64-.72,1,1,.48,1,.48a4.9,4.9,0,0,0,.64.4,4.1,4.1,0,0,1,1,.83,0,0,0,0,1,0,0,1.72,1.72,0,0,1,.37.62s0,0,0,.06a1.9,1.9,0,0,0,.8,1.35.18.18,0,0,0,.07,0,4.4,4.4,0,0,0,1.44.67s.4,1.35.72,1.51.56.88.71,1.28,1.68,2.86,1.59,3.74a1.07,1.07,0,0,0,0,.25h0a10.41,10.41,0,0,0,1.12,2.69l1,.81a11.41,11.41,0,0,1,1.8,1.66c.07.31,2.06.87,2.06.87a5,5,0,0,0,1.2-1.43c.24-.64,0-.72-.16-1a3.29,3.29,0,0,1,1-2.31C1065.19,1277,1064.24,1276.9,1064.24,1276.9Zm14.9-15.53c-.32-.24,0,0-.48.88a7.8,7.8,0,0,1-1.28,2,12,12,0,0,0-2.47,1.75c-.48.56-1.43,2-1.75,1.76s-1.68,1-1.68,1l-.71,1.75-2.23-.48.16.72s-.72,1.11-.56,1.36,0,1.11.24,1.59a2.94,2.94,0,0,0,.88,1.11,2.41,2.41,0,0,1,.23,2.16c-.24.79.32.95.64,1.27a1.21,1.21,0,0,0,1.35.16,1,1,0,0,1,.38-.17,177.68,177.68,0,0,1,8.18-16.1C1079.65,1261.8,1079.28,1261.48,1079.14,1261.37Zm-9.16,21.27c-.32.48-.16,1.12-.48,1s-2.48.16-2.48-.08a1.85,1.85,0,0,0-.79-1c-.24-.08-.16-.32-.56-.48a2.56,2.56,0,0,0-1.19.08l-.8.08-1,1.12a8.24,8.24,0,0,1,2.47.56,14.78,14.78,0,0,0,1.44,1.27s1.59.4,2,.48l.45.06c.29-1.05.66-2.15,1.08-3.3A.3.3,0,0,0,1070,1282.64Zm22.3,2.87c-.24.08-.64-.32-1.19-.08a13.06,13.06,0,0,1-2.07.47,3.37,3.37,0,0,1-1.52-.07c-.56-.24-1.2-.64-1.43-.32a4.39,4.39,0,0,1-1.84.71,10.56,10.56,0,0,1-1.75-.23,3.58,3.58,0,0,0-1.11-.16c-.32,0-.32-.24-1.2-.32s-1.12-.32-1.35-.24a6.32,6.32,0,0,0-1,.32,1.18,1.18,0,0,1-.39.09c-.2.45-.39.92-.58,1.41l.33-.07c.48-.08,1.6-1.12,2.31-.32s2.15.24,2.39.4,1-.4,1.83-.32,1,.32,1.2.32a7.16,7.16,0,0,0,1.43.16c.4-.08.88-.56,1.6-.48a10.12,10.12,0,0,0,2.62-.56s0,.08-.47.4-2.07,1.51-2.07,1.51-.24-.16-.32.32-.56,1.44-.08,1,2.15-1.83,2.55-2.15a8.22,8.22,0,0,1,.95-.72,7,7,0,0,1,1.28-.48l.56-.4S1092.52,1285.43,1092.28,1285.51Zm-23.82-44.21a2.24,2.24,0,0,0-.88-.16l-.79.31-.4-.15-.88,1.19s.24,1.35.48,1.35h1.11l.88-.63.48-1.19S1068.7,1241.46,1068.46,1241.3Zm13.86-6.7c-.24-.4-.08-1-.24-1.27a3.42,3.42,0,0,1-.24-.8l-.79.32a7.63,7.63,0,0,0-.8,1.75s-.32,1.44-.08,1.75l.88,1.2.31.56.48-1s.24-.95.32-1.19S1082.56,1235,1082.32,1234.6Zm3.75,15.54c-.56.16-.8-.24-1.12-.24s-.48-.4-.55-.87a9.35,9.35,0,0,1,.07-1.68,3.43,3.43,0,0,1,.48-1,1.3,1.3,0,0,0,0-.88,11.1,11.1,0,0,1-.48-1.91c0-.4-.88-.8-.88-.8l-1,.4-.4,3.51s-.72.23-.63.55.07,1.84.47,2.15,1,.72,1,.72c.16.4-.24,1.19-.24,1.19a9.06,9.06,0,0,1,1,1.44c.08.32.56.16.56.16s-.24-2.15.23-1.76,1.14.33,1.56.53l.8-1.32A1.13,1.13,0,0,0,1086.07,1250.14Zm1.81,30.87c0,.05,0,.08,0,0S1087.9,1281,1087.88,1281Zm36.5,7s-1.75-1-1.83-1.43-1.51-1.59-1.43-2-.64-.88-.32-.88,1.59-.16,1.43-.4-1-1.75-1.43-1.75-1.59,0-1.68-.48a4.14,4.14,0,0,0-.39-1.43,46.7,46.7,0,0,0-6.06-3.35c-.64-.24-4-1.28-4-1.28s-1.6.64-1.6.88-.8,1.12-1.12,1.44-.24.63-.72.55-.55,0-.8-.24-.47-1-.79-1.27-1-.56-.8-1.2.4-1.51-.08-1.51-1.19.32-1.35.08-1.11-.16-1.11-.16l-2,.56-.25.08s.88,1.67,1.44,1.51,1.59,1.12,1.59,1.12-.32.72-.16,1,.8,1.44.8,1.44l1.27-.08,1.28.56,3.42,1.11,1,1.11.56,2.4s-1.44.95-1.35,1.35,1.83-.08,1.83-.08l1.43.72,1.75.87,2,.08,1.19-1.35s1.75-1.51,1.75-1.19,1.59.95,1.83,1.67a8.18,8.18,0,0,0,1.68,2l2.23.72c.23.07.79.16,1.35.32S1124.38,1288,1124.38,1288Zm-1.83,22.23-.71-2.24s-.88-.39-1-.23-.4-1.52-.4-1.52l.16-.87s-2.39-3-2.47-2.79a14.7,14.7,0,0,1-.88-2.47l-.23-2.95-.56-1.75-1.43.16-.32-2.87-.81-2.71-.39-.16-.8,1.83s-.4,2.56-.56,3.43a9.36,9.36,0,0,1-.71,2.95c-.48.8-1.6,2.71-1.6,2.71s-1.27,0-1.43-.24a9.28,9.28,0,0,0-1.59-1l-.88-1.35-1.43-1.12s-1-1.19-1-1.11a7.77,7.77,0,0,1,.95-1.28c.25-.16.32-.95.32-.95l1.28-1s.24-.4,0-.63-.24-.64-.56-.73a9.82,9.82,0,0,0-2.15.81l-1.51-.72a4.76,4.76,0,0,1-1.36-1c-.24-.4-.88-.64-1-.48s0,1,0,1,.32.7.44.92c-.15-.13-.68.27-.68.27l-1.52.16-1,.88-.71,1.35-.48,1s.4.64.24.55a17.79,17.79,0,0,0-2.31.56,9.51,9.51,0,0,0-.8-1.43,2.74,2.74,0,0,0-1.27-.64c-.32,0-1.12.72-1.12.72l-.31,1.67-1.2-.32-1,1.76-1,.4-.56,1.19-.32-1.27-1.19,1.11-.4,1.83a19.57,19.57,0,0,0-1.68,1.75,20.83,20.83,0,0,1-3.51,1.52l-2.14.72-.74.14a25.42,25.42,0,0,0,4,7.27c6.61,8.57,13.47,11.36,19.31,12.21h0l.14-.16-.06.17a57.26,57.26,0,0,0,9.62.28c1.58,0,4.81-.1,8.79-.22l1.66-1.13,1.28-1.83,1.75-3.19,1-3.58.72-2.71Z" transform="translate(-1030.5 -1104.35)"/><path id="svg_117-3" data-name="svg 117" class="cls-2" d="M1237.34,1285.55c-.35-.66-1.37-.78-1.61-1.26s-1.37-.17-1.67,0-2-.41-2.45-.41,0,.53,0,.53l-.18,1.73h-2l-.06.18s-.54.18-.54.54.72.24,1,.36.77-.06,1-.06a8.33,8.33,0,0,0,1-.18,3.29,3.29,0,0,1,.24.72c0,.18,1.25-.06,1.25-.24a2.3,2.3,0,0,1,.3-.66l1.49-.3,2.21.06C1237.58,1286.56,1237.7,1286.21,1237.34,1285.55Zm-8.78-2.81c-.48,0-2.21-1.67-2.33-2s-4-1.31-4-1.31-4.24-.24-4.24-.36a22,22,0,0,0-2,1.61v.18s.18.83.25,1,1.37-.95,1.49-1.43,1.07-.6,1.31-.72.36.48.6.48a9.52,9.52,0,0,1,1.31.36l2.16.72.83.77s.36,1.91.36,2.15,1.61.12,1.61.12l3.17-.29s1-.61.95-.79A2.53,2.53,0,0,0,1228.56,1282.74Zm22.83-86.5s-.33-.48-.72-.4a12.65,12.65,0,0,0-1.67.72,3.46,3.46,0,0,0,1.11,1.75c.32.08,1.27.08,1.35-.16A13.67,13.67,0,0,0,1251.39,1196.24Zm-13.94.08a20.7,20.7,0,0,1-2,1l-.08.55-1.31.56a5.15,5.15,0,0,0,1.71.16c.32-.16,1.44-.63,1.44-.63l.95-.8.32-.4S1237.76,1196.08,1237.45,1196.32Zm10.75.8c-.48-.24-2-.56-2.31-.72a7.12,7.12,0,0,0-1.52-.24l-.71.16c-.16.24-.48.8-.24.88l2.39.71a3.11,3.11,0,0,0,1.27.16C1247.4,1198,1248.68,1197.36,1248.2,1197.12Zm-11.55,2.87.24-.8s-.32-.48-1,.08a9.78,9.78,0,0,1-2.55,1.43c.16-.24-.79.08-1.19-.4a1.7,1.7,0,0,0-1-.55s-1.12-.4-1.51-.24.71-.8.71-.8.24-.88-.24-.79-4.38,1-4.38,1-1.67,1-2,.72-1.51.16-1.51.16l.8.47c.23-.24,2.62.24,2.62.24s.32,1.36,1,1,2.47,1,2.47,1.11.63.09.63.09l2.8-1,1.55-.24a6.52,6.52,0,0,1,1.71.08c.24.16,1.44-.4,1.44-.4l.47-.8Zm5.74,2.39a25.7,25.7,0,0,0-2.63.24c-.64.24-1.44-.32-1.36.31a5.06,5.06,0,0,1,0,1.2l-.87-.16s-.08-.64-.32-.64-1,.88-1,.88,1,.4,1.2.72.55.71.55,1,2.63-.8,2.63-.8l1.44-.71s.07.16.16-.24-.16-.72,0-.8S1243,1202.22,1242.39,1202.38Zm-9.17,5.34c-.24-.56-1.11-1.44-.87-1.6s.79-.32.71-1.83.16-1.27-.24-1.19a9.31,9.31,0,0,0-1.35.55l-.32-.08c-.15.48-.87.8-1,1.28s-.63.71-.63.32-.56-.48-.64-.8-.8-.24-1.19-.16-1.52-.72-1.92-.4-.79-.16-1.11-.87-.72-1.28-1.2-1.2-3.42,0-3.42,0l-1.75.16s-1,.24-1,.72a.86.86,0,0,1-.64,1c-.48.16-4,1.44-4,1.44s1,.63.72,1,2.06.56,2.22.24,1.6-.08,1.92-.56,1.91-1.43,2.15-1.27-.48.95-.72,1,.8.16-.24,1-.79,1.52-.79,1.52-.88.39-.24.55a14.81,14.81,0,0,1,1.83.72s.08.56.08.72.4.63,1.27.08,2.63-1.2,2.87-1,.8-.08,1.6-.16a6.37,6.37,0,0,0,1.43-.32l1,.16c.47.24.87-.32,1.67.16a4.29,4.29,0,0,0,1.91.48,13.31,13.31,0,0,1,1.35-1C1233,1208.35,1233.46,1208.28,1233.22,1207.72Zm28-13.88c-1.37.14-2.63.29-2.76.25s-1.66-.14-1.83-.16c.15,0-2.32,2-2.72,1.43s0-1-.39-.55-.32,2.23-.32,2.23c.48.32,1.51,1.43,2.23,1a1.26,1.26,0,0,1,1.35-.17c.24.09-1.11,1.12-1.91,1.12a17.91,17.91,0,0,0-3.35,1,11.09,11.09,0,0,0-1.35-1.12,14.11,14.11,0,0,0-1.83-.16c-.24,0-.56-.23-.64.48s.08,1.83-.71,1.67-1,.16-1.44-.08.56-1.43-.56-1.51-1.75-.87-2.39.4-1,1.27-.39,1.51a6.77,6.77,0,0,0,2.39.4c1.35.08,1.51-.08,2.15.16s1.19.64,1.43.07.56-.55.8-.87,0-.64.39-.8,1.12.64,1.12.64-.88.56-.48.64,1.51.32,2.07.39.08.24,1,.33,1.35-.09,2.55-.09,1.91-.55,2.31-.39a7.06,7.06,0,0,0,2.15.08c.39-.08,1.36-1,.95-1s-1.91-.4-2.54-.48a10.64,10.64,0,0,0-3.11.08,1.78,1.78,0,0,1-1.36.24c-.31-.16,1.36-1.43,2.47-1.27s2.79-.16,3.35-.08,1.91.32,1.91.32a.88.88,0,0,0,.4-.4l.16-.48.8.72,1.17-.49Zm-15.54,104.38-.59.1-3.28.49-.36.71-1.73-.89-2.93-.18s-2.1-.84-2-1.07-.65-1.14-.65-1.14a10.52,10.52,0,0,1-.6,1.25c-.12.12-1.61,1.38-1.61,1.38l.12,1.91-1-1.08.72-1v-1.43c0-.19.9-.6.9-.6l-.36-.78s-1.08.3-1.08.48-1.43,1-1.43,1l-1.73.65h-.78a8.48,8.48,0,0,1-1,1.32c-.18.06-.11,1.19-.11,1.19s-1.92,2.15-2,1.91a27.54,27.54,0,0,0-2.15-1.91l-2.39.3-1.37.72-1.68-1.14-1.31-2,.12-2.39.72-2.63.3-1.73-1.8-1.32a24.6,24.6,0,0,1-3.64.12c0-.17-2,.07-1.91-.12s.71-1.31.71-1.49.48-1.55.48-1.55l.78-1.56,1-3,.6-1-3-.18-1.79.72-1,3-5.08,1.37-1.26-1-.05.22a14.44,14.44,0,0,0-1.56-2.38l-.78-2.92s2-5.84,2-5.92c-.06.12.07-2.21.07-2.21l6.39-4.18,2.45.36.59.59,1.5-.24,1.49-1.49,1.91.24,1.85-.36,1.14,1.26,1.67-.66.9,1,.54.59v1l-.42,1,.42,2.15,1.19,1.67.78.3.95-2.63-.18-2.45-.41-2v-1.44l2.34-2.85c-16.41.35-31.55-.45-31.55-.45l-1.85-19.95-11.14,23.27c.08.56.14,1.13.14,1.24a17.06,17.06,0,0,0,.41,1.67l2.27,3.16-.35,1.62,4.36,5.2-.06,2.09-.66,1,.36,1.44,3.64,2.69.6-.12,1.07,1.08,3.95,2,2,.48,2.33-.72,1.49.72,2.28,2.63,2.33.59,2.38.84h1.14l.3,1.37s1.08,1.38,1.32,1.56.06,1.73.06,1.73l1,.53,1.2,1.26.77.72.84,1,.54-.36,1.07.29,1.55,1.44,1-.6-.29-1.13.95-1h.83l.9.72-.06.83,1.08,1.74.06,4.84-1,1.55-1.32.9-.05,1.43-1.38.54-.54,1.91-.83,1.67.18,1.43.18.16c1.71,0,3.38-.05,5,0,10.3.09,15-8.46,15-8.46l5.82-11.34-.37-.52.82-.37Zm23.55-87.48-1.07-.54-.84.24-.77-.9.83-.77.36-1.08-1-.95-1.49-.3-.36-.78a5.34,5.34,0,0,0-1.43-.06c-.18.12-1.08-1.07-1.08-1.07l-.78-1c-.12-.06-.53-.48-.77-.42s-2.75.12-2.75.12l-.6.18-.77-.6-3.11.78-1.61,1.26s-.12-.72,0-.9a11.15,11.15,0,0,1,1.43-1c.18-.11-1.38-.18-1.38-.18a26.34,26.34,0,0,0-3,1.14c-.12.18-2.34,1.91-2.34,1.91l.07,1.43,2,.31.77.17-.53.48-.42.9-1.31.71-1.62,1.2-1.38.53-.23-1,1.19-.72s-.24-1.49-.36-1.37-1.37-.06-1.43.12a8.35,8.35,0,0,1,.06-1.13l-.06-1.26-.3-1a13.62,13.62,0,0,1,1.19-.89c.18-.06,2.1-.18,2.1-.18l3-1.74-2.51-.11s-2.32,0-2.45.3-1.67,1.85-1.67,1.85l-.95.71-3.17,2-.12,1.37-1.31-.24-1-.18-2.38,1v1.31l-4.37.24s-2.09-.3-2.09-.59-.78-.9-1-.9-2.93.83-2.93.83l-.12.84-3.1-.18s-2.57.48-2.51.24-1.38-.12-1.38-.12l2.15-1-1.49-.71-2.69-.42-1.91-.6-2.15.3-.24-.89-1.91.77-.54-1.25-1.31.6-3.43.71,28.34,44.28,5,.51,1.4-1.77,3.11-1.07,1.91-.36.6-.66-.72-.59,1.5-2.22,4.72-1.85,2.87-.84-2.34,1.5.48,1.13,1.73-.47,1.26-.78,3.29-.89a9.08,9.08,0,0,1,.65-1c-.11.3,1.68-.3,1.68-.3l-.36-.72.12-1-1,.36-1.44,1.56-2.33-.12-1.07-1.61,1-1.38s.83-1.69.95-1.9a8.25,8.25,0,0,1-1.61-.49l-2.33.84c-.24,0-2.45,1.31-2.39,1.13s-.88.48-1.09.63l3-2.42,1.26-.18,1.43-1.31h6.87l2.34-.48,3.1-1.67.24.3-1.31,1.25-1.62,1.67-1.55,1.67-.78,1,2.45.12s1.91.05,2.09,0,.3.83.3.83l1-.71.54,1.37,1.79-1.37-.54-1.56.48-1.43-2.09.06v-.78a5.57,5.57,0,0,0-.81-.79c.17-.1.91-.76,1.08-.87-.12,0-.51-.61-.51-.61l1.43-1.79-.71-2-.24-1-1.86-.9-.65-.9-.84-.66.66-1.55-.3-1.13s-.52-3.59-.6-3.59-2.51,2-2.51,2l-2.51,1.26-1.32-1.14.13-1.5,1.13-1.07-1.85-.6-.12-.47s-1.67-1.68-1.79-1.56l-.54.54-3.94-.36-1.38,2.39-.3,1.25s-2.12,2.13-2.41,2.33c.19,0,1.16,1,1.16,1l-.9,2.15-3.41,2-1.67.24s-1,3.71-.95,3.95-1.38.89-1.38.89l-1,.72-.42-1.31a13.71,13.71,0,0,0-.64-1.26,8.77,8.77,0,0,0,1.23.24l.19-.84-1,.06.42-1.37.89-1.49-3.1-.24-.71-.84-1.56-.24-.13-.66-1.07-.66-1.32-.59-1.43.18-.06-1.26.36-1.19-1.43-.24s2.4-2.45,2.45-2.45,7-3.53,7-3.53l.84-.89,1.38-.12,3-1.38,2.27-1.55.24.12-1.73,1.61-.47.6-1.38.66,1.26.17-.19.72,1.38-.24,1.37-1.13,1.08.36.48.53,1.49-.06-.06-1.13-2.32-1.67-.55-.54-.23-.6,1,.13.84.71.89-.9,1.8-.23,1.79-1.26-.12-.78,1.37-1.31-.89-.95,2.39-.06,2.08.06s1-.48,1.2-.18a15.26,15.26,0,0,0,1.74,1.43l-.6.54-2.45.3-.6,1.19,1.8.24,1.37-1.43,1.49-.12.24,1.43s-1.67,1-1.91,1-1.26.54-1.26.54l-.06,1.08-1.61.18-1.67-.3-.78.06-1.25,1,1,.9a17,17,0,0,0,1.73-.78c.24-.17,1-.53,1.2-.23a10.18,10.18,0,0,0,1.19,1.13l.84,1.62.78.24,2.39.77a11.81,11.81,0,0,1,1.66.52c0-.17-.16-1-.16-1l-1.27-1.49s0-.42.36-.3a7,7,0,0,1,1.44,1c.18.06,1.37.78,1.37.78l.48-1.31,1.07-.66-.41-.78-.6-.65-.66-.78.06-.9.36-.23c.18-.12.72-.54.84-.31s1.32,1.8,1.32,1.8l1.13.23.54-.89a12.45,12.45,0,0,1,1.49-.12s.12-.72.12-.72l1.37-.35Zm-87.71,65.78a7.78,7.78,0,0,1-.65-1.91,20.53,20.53,0,0,0-1-3s-.39-.83-.64-1.47l-1.44,3,.1.14.54.07,1.08,1.25-.42,1.67,1.13.9,1.08,1.67.18.84,1-1Z" transform="translate(-1030.5 -1104.35)"/><path class="cls-4" d="M1242.13,1128l-12.44,22.73-2.22,4.06-4.4,8-4.06,7.43-3.13,5.72-55.81,1.67,16.89-10.81s-.39-.86-1.09-2.37c-.36-.77-.79-1.7-1.3-2.77-1.35-2.84-3.19-6.67-5.37-11-9.25-18.37-24.44-45.7-32.36-44.23l0-1,61.21-.16a17.92,17.92,0,0,1,11.7,5.56,16.88,16.88,0,0,1,2.68,3.89c4.65,9.22,12.34,21.46,12.34,21.46Z" transform="translate(-1030.5 -1104.35)"/><path class="cls-4" d="M1149.7,1138.53l-29.85,51.55-18-10.46-2.74-1.6-1.63-.94-23.28-13.56-3.89-2.26s17.61-29.22,20.93-34.87,6.95-17.43,24.64-19.55c19.79-2.35,28.09,17.23,28.09,17.23Z" transform="translate(-1030.5 -1104.35)"/><path class="cls-4" d="M1118.33,1238.78l-17.94-9s-6.33,9.09-13.4,20.56l-.8,1.32c-2.06,3.36-4.15,6.9-6.15,10.45a177.68,177.68,0,0,0-8.18,16.1q-1,2.22-1.71,4.26c-.42,1.15-.79,2.25-1.08,3.3-1.26,4.34-1.42,7.7.07,9.41l-.86.52-9.58-15.95-2.11-3.5h0l-4.47-7.45-.88-1.46-.37-.62a0,0,0,0,0,0,0l-1.49-2.49-12.6-21a16.67,16.67,0,0,1-1.49-4.2,16.93,16.93,0,0,1,2.22-13c5.53-8.7,12.11-21.61,12.11-21.61l-16-10.7,53.48-2,1.18,0Z" transform="translate(-1030.5 -1104.35)"/><path class="cls-4" d="M1150.23,1324.24s-19.84.68-32.29,1c-4,.12-7.21.2-8.79.22a57.26,57.26,0,0,1-9.62-.28h-.09c-5.84-.85-12.7-3.64-19.31-12.21a25.42,25.42,0,0,1-4-7.27c-2.46-7.06-1.09-13.83.73-18.64.19-.49.38-1,.58-1.41a30.74,30.74,0,0,1,3.05-5.61l1.63-2.11,2.45-3.18,2-2.63.82-1.07,2.57-3.33,59.55-.79Z" transform="translate(-1030.5 -1104.35)"/><path class="cls-4" d="M1266.64,1256.33l-21.53,42-.13.24-.45.89-5.82,11.34s-4.68,8.55-15,8.46c-1.58,0-3.25,0-5,0-9.43.2-19.78,1.08-19.78,1.08l-.67,19.24-30.6-45.34,10.13-21.17,1.44-3,1.4-2.93,11.14-23.27,1.85,19.95s15.14.8,31.55.45c18.51-.4,38.64-2.27,40.51-8.41Z" transform="translate(-1030.5 -1104.35)"/><path class="cls-4" d="M1275,1237.14c-7,18.67-28.19,17-28.19,17l-10.43-1-5-.51L1203,1208.35l-3.77-5.89,48.32-30.76s7.44,12.08,13.66,22.14l3.11,5c2.08,3.36,3.78,6.08,4.63,7.42C1272.48,1211.82,1281.27,1220.44,1275,1237.14Z" transform="translate(-1030.5 -1104.35)"/></svg>