<svg id="Layer_1" data-name="Layer 1" xmlns="http://www.w3.org/2000/svg" viewBox="0 0 269.63 106.42">
  <defs>
    <style>
      .cls-1 {
        fill: #0d7aa2;
      }

      .cls-2 {
        fill: #c23d27;
      }

      .cls-3 {
        fill: #f16926;
      }

      .cls-4 {
        fill: #f9a553;
      }

      .cls-5 {
        fill: #34afc0;
      }

      .cls-6 {
        fill: #072b48;
      }

      .cls-7 {
        fill: #0e89a9;
      }
    </style>
  </defs>
  <title>pic077</title>
  <g>
    <g id="TreeBranches">
      <rect class="cls-1" x="6.17" y="41.09" width="0.58" height="16.4"/>
      <rect class="cls-1" x="198.03" y="301.11" width="18.13" height="0.58" transform="translate(-351.58 45.85) rotate(-54.71)"/>
      <rect class="cls-1" x="217.73" y="294.31" width="0.58" height="19.57" transform="translate(-252.84 -196.98) rotate(-12.31)"/>
      <rect class="cls-1" x="215.48" y="265.32" width="16.4" height="0.58" transform="translate(-220.52 -224.62) rotate(-6.23)"/>
      <rect class="cls-1" x="234.28" y="261.07" width="18.91" height="0.58" transform="translate(-257.15 -170.58) rotate(-16.48)"/>
      <rect class="cls-1" x="243.68" y="261.84" width="0.58" height="24.69" transform="translate(-315.86 36.04) rotate(-50.26)"/>
      <rect class="cls-1" x="248.71" y="271.72" width="16.4" height="0.58" transform="translate(-231.09 251.72) rotate(-84.6)"/>
      <rect class="cls-1" x="271.42" y="256.45" width="0.58" height="20.86" transform="translate(-298.07 72.15) rotate(-52.9)"/>
      <rect class="cls-1" x="258.08" y="279.05" width="21.86" height="0.58" transform="translate(-270.75 -144.82) rotate(-19.47)"/>
      <rect class="cls-1" x="268.49" y="283.63" width="16.4" height="0.58" transform="translate(-302.14 124.68) rotate(-59.04)"/>
      <rect class="cls-1" x="262.53" y="281.01" width="0.58" height="16.4" transform="translate(-319.85 68.62) rotate(-52.12)"/>
      <rect class="cls-1" x="239.2" y="288.73" width="16.4" height="0.58" transform="translate(-313.6 -58.02) rotate(-34.73)"/>
      <rect class="cls-1" x="274.78" y="295.36" width="0.58" height="16.4" transform="translate(-304.01 -83.9) rotate(-28.28)"/>
      <rect class="cls-1" x="285.22" y="308.52" width="16.4" height="0.58" transform="translate(-281.77 -129.81) rotate(-20.25)"/>
      <rect class="cls-1" x="295.56" y="290.48" width="0.58" height="16.4" transform="translate(-317.46 38.81) rotate(-43.99)"/>
      <rect class="cls-1" x="289.74" y="289.03" width="8.86" height="0.58" transform="translate(-311.24 52.09) rotate(-46.36)"/>
      <rect class="cls-1" x="273.96" y="293.3" width="16.4" height="0.58" transform="translate(-211.28 -231.74) rotate(-3.68)"/>
      <rect class="cls-1" x="286.01" y="275.73" width="0.58" height="16.4" transform="translate(-282.89 -111.7) rotate(-23.66)"/>
      <rect class="cls-1" x="290.19" y="270.73" width="0.58" height="16.4" transform="translate(-283.17 159.99) rotate(-62.9)"/>
      <rect class="cls-1" x="278.38" y="300.29" width="16.4" height="0.58" transform="translate(-303.35 172.34) rotate(-63.48)"/>
      <rect class="cls-1" x="300.98" y="287.28" width="0.58" height="16.4" transform="translate(-218.05 -222.56) rotate(-5.09)"/>
      <rect class="cls-1" x="196.3" y="278.5" width="18.51" height="0.58" transform="translate(-333.37 46.35) rotate(-56.58)"/>
      <rect class="cls-1" x="212.38" y="276.31" width="23.59" height="0.58" transform="translate(-323.95 51.93) rotate(-55.13)"/>
      <rect class="cls-1" x="233.46" y="266.95" width="0.58" height="21.01" transform="translate(-216.76 -228.58) rotate(-5.1)"/>
      <rect class="cls-1" x="213.68" y="270.48" width="0.58" height="16.4" transform="translate(-212.58 -234.28) rotate(-4.14)"/>
      <rect class="cls-1" x="205.88" y="281.48" width="0.58" height="16.4" transform="translate(-313.99 178.5) rotate(-77.62)"/>
      <rect class="cls-1" x="224.45" y="285.57" width="0.58" height="16.4" transform="translate(-298.2 210.51) rotate(-79.46)"/>
      <rect class="cls-1" x="211.37" y="306.65" width="0.58" height="16.4" transform="translate(-334.26 203.62) rotate(-77.62)"/>
      <rect class="cls-1" x="218.75" y="308.32" width="16.4" height="0.58" transform="translate(-348.65 77.61) rotate(-56.58)"/>
    </g>
    <g id="Logo">
      <path class="cls-2" d="M237.34,286.9a9,9,0,1,0,9,9h0A9,9,0,0,0,237.34,286.9Zm0,10.95a2,2,0,1,1,2-2h0A2,2,0,0,1,237.34,297.84Z" transform="translate(-193.02 -250.46)"/>
      <circle class="cls-3" cx="21.78" cy="39.99" r="5.4"/>
      <circle class="cls-4" cx="28.16" cy="66.44" r="3.83"/>
      <circle class="cls-5" cx="5.62" cy="62.61" r="5.62"/>
      <circle class="cls-3" cx="6.75" cy="37.86" r="3.83"/>
      <circle class="cls-2" cx="39.48" cy="14.25" r="3.35"/>
      <circle class="cls-2" cx="77.01" cy="44.19" r="6.29"/>
      <circle class="cls-3" cx="89.14" cy="24.34" r="3.48"/>
      <circle class="cls-4" cx="62.72" cy="33.48" r="3.94"/>
      <path class="cls-4" d="M213,261.84a5.1,5.1,0,1,0,5.1,5.1,5.1,5.1,0,0,0-5.1-5.1Zm0,6.22a1.12,1.12,0,1,1,1.12-1.12h0a1.11,1.11,0,0,1-1.08,1.14h0Z" transform="translate(-193.02 -250.46)"/>
      <path class="cls-4" d="M299.94,278.94a5,5,0,1,0,5,5,5,5,0,0,0-5-5Zm0,6.18a1.18,1.18,0,1,1,1.18-1.19h0A1.18,1.18,0,0,1,299.94,285.12Z" transform="translate(-193.02 -250.46)"/>
      <circle class="cls-5" cx="97.46" cy="42.48" r="2.91"/>
      <path class="cls-5" d="M280.52,305.71a7.36,7.36,0,1,0,7.36,7.36h0A7.36,7.36,0,0,0,280.52,305.71Zm0,8.92a1.56,1.56,0,1,1,1.56-1.56h0a1.56,1.56,0,0,1-1.56,1.55Z" transform="translate(-193.02 -250.46)"/>
      <path class="cls-5" d="M258.24,250.46a6.77,6.77,0,1,0,6.77,6.77A6.77,6.77,0,0,0,258.24,250.46Zm0,8.18a1.41,1.41,0,1,1,1.41-1.41A1.41,1.41,0,0,1,258.24,258.64Z" transform="translate(-193.02 -250.46)"/>
      <circle class="cls-3" cx="109.4" cy="55.07" r="4.95"/>
      <path class="cls-1" d="M260.91,356.88V327.76l6.1-7.51,2.27,5.28-3.6,4.1.14,27.22" transform="translate(-193.02 -250.46)"/>
      <path class="cls-6" d="M257.9,356.88h-5q0-21.67.08-43.35l6.84-14.87,3,4.68-5.06,12.35" transform="translate(-193.02 -250.46)"/>
      <path class="cls-7" d="M249.94,356.88h-4.61l.37-39-4.39-7.14,2.75-4.31,6.1,9.15" transform="translate(-193.02 -250.46)"/>
      <path class="cls-5" d="M241.84,356.88h-4.68l.3-25.51-4.09-7.29,2.75-4.39,5.72,9.52" transform="translate(-193.02 -250.46)"/>
    </g>
  </g>
  <g>
    <path class="cls-6" d="M323,350.33V322.76h7.88a9.72,9.72,0,0,1,4.56.86,7.5,7.5,0,0,1,4.37,6.71,7.86,7.86,0,0,1-3.74,6.63c-2.54,1.6-5.77,1.68-8,1.68H326.6v11.7Zm3.59-12.17,1.83-2.46a9.17,9.17,0,0,0,5.23-1,5.06,5.06,0,0,0,2.3-4.29c0-3.71-2.85-4.84-5.62-4.84H326.6Z" transform="translate(-193.02 -250.46)"/>
    <path class="cls-6" d="M346.37,350.33h-3.32V322.8h3.32Z" transform="translate(-193.02 -250.46)"/>
    <path class="cls-6" d="M364.24,345.42c0,3.63.2,4.17.47,4.91h-3.35a6.94,6.94,0,0,1-.43-2.73L359,350.45a11.44,11.44,0,0,1-2.57.35,7.22,7.22,0,0,1-4.84-1.52,5.31,5.31,0,0,1-1.79-4.17,5.86,5.86,0,0,1,3.78-5.54,13.26,13.26,0,0,1,5.27-.94c.27,0,.9,0,2.11.08,0-3.82-.23-5.38-4.06-5.38a16,16,0,0,0-5.62,1.25l2-3.35a18.33,18.33,0,0,1,4.52-.62c1.33,0,3.71.08,5.23,1.87,1.21,1.48,1.25,3.2,1.25,5.07Zm-3.32-4.13a9.13,9.13,0,0,0-1,0,15.16,15.16,0,0,0-4,.43,3.45,3.45,0,0,0-2.57,3.31c0,1.44.74,3.16,3.55,3.16a8.1,8.1,0,0,0,4-1.13Z" transform="translate(-193.02 -250.46)"/>
    <path class="cls-6" d="M375.93,339.57c1.79.86,4.13,2,4.13,5.3s-2.5,5.93-6.75,5.93a13,13,0,0,1-5.26-1.25v-3.08a10.91,10.91,0,0,0,1.87,1,8.28,8.28,0,0,0,3,.7c2.54,0,3.59-1.72,3.59-3.12,0-2-1.75-2.73-3-3.24l-1.33-.47c-1.4-.58-4.09-1.68-4.09-5.07s2.77-5.69,6.55-5.69a9.59,9.59,0,0,1,4.45,1.09v3a6,6,0,0,0-4-1.52c-2.57,0-3.55,1.56-3.55,3,0,1.6,1.37,2.22,2.54,2.73Z" transform="translate(-193.02 -250.46)"/>
    <path class="cls-6" d="M390.29,350.57a7.93,7.93,0,0,1-1.72.23,4.36,4.36,0,0,1-3.51-1.48c-.94-1.13-.94-2.22-.94-4.29V333.49h-2.26L383.7,331h.43v-3.74l3.35-1.05V331h4v2.46h-4v10a16.24,16.24,0,0,0,.08,2.77,2.2,2.2,0,0,0,2.38,2,6.32,6.32,0,0,0,2.34-.55Z" transform="translate(-193.02 -250.46)"/>
    <path class="cls-6" d="M397.74,324.24a1.88,1.88,0,0,1-1.87,1.91,1.91,1.91,0,0,1-1.87-1.91,1.87,1.87,0,1,1,3.74,0Zm-.2,26.09h-3.32V331.07h3.32Z" transform="translate(-193.02 -250.46)"/>
    <path class="cls-6" d="M414.82,350.18a16.33,16.33,0,0,1-3.82.62,10.36,10.36,0,0,1-7.29-2.92,9.94,9.94,0,0,1-2.57-7c0-5.19,3.39-10.34,10-10.34a13.11,13.11,0,0,1,4.8,1v3.2a8.74,8.74,0,0,0-4.68-1.48c-3.82,0-6.51,2.89-6.51,7.45,0,4.21,2.61,7.49,7.14,7.49a9,9,0,0,0,2-.23c.43-.08,1.6-.47,2.65-.82Z" transform="translate(-193.02 -250.46)"/>
    <path class="cls-6" d="M425.5,339.57c1.79.86,4.13,2,4.13,5.3s-2.5,5.93-6.75,5.93a13,13,0,0,1-5.26-1.25v-3.08a10.91,10.91,0,0,0,1.87,1,8.28,8.28,0,0,0,3,.7c2.54,0,3.59-1.72,3.59-3.12,0-2-1.75-2.73-3-3.24l-1.33-.47c-1.4-.58-4.09-1.68-4.09-5.07s2.77-5.69,6.55-5.69a9.59,9.59,0,0,1,4.45,1.09v3a6,6,0,0,0-4-1.52c-2.57,0-3.55,1.56-3.55,3,0,1.6,1.37,2.22,2.54,2.73Z" transform="translate(-193.02 -250.46)"/>
    <path class="cls-6" d="M441.81,350.33h-7.13V337.62h1.64v11.43h6.23Z" transform="translate(-193.02 -250.46)"/>
    <path class="cls-6" d="M450.81,350.33h-7.13V337.62h1.64v11.43h6.23Z" transform="translate(-193.02 -250.46)"/>
    <path class="cls-6" d="M461.75,350.28a11.61,11.61,0,0,1-3,.38c-5,0-7.35-3.17-7.35-6.63,0-3.82,2.74-6.73,7.08-6.73a9.36,9.36,0,0,1,3.64.68v1.67a6.86,6.86,0,0,0-3.57-1.1,5.11,5.11,0,0,0-5.35,5.28c0,3.13,2.09,5.51,5.8,5.51a11.12,11.12,0,0,0,3.67-.67Z" transform="translate(-193.02 -250.46)"/>
  </g>
  <g>
    <path class="cls-6" d="M343.25,318.19h-4.13L331.63,306a35.27,35.27,0,0,1-5.07.2v12H323V290.65h7.37c1.87,0,4.56,0,6.79,1.87a7.13,7.13,0,0,1,2.5,5.58c0,4.29-3,6.08-4.49,6.94Zm-16.69-12.36,1.79-2.5a11.22,11.22,0,0,0,1.37.08,7.55,7.55,0,0,0,4-1,4.7,4.7,0,0,0,2.14-4.13,4.64,4.64,0,0,0-1.79-3.86c-1.37-1-3-1-5-1h-2.5Z" transform="translate(-193.02 -250.46)"/>
    <path class="cls-6" d="M358.62,318a13.4,13.4,0,0,1-4.21.62c-5.77,0-10.14-3.32-10.14-10.06,0-6,3.71-10.14,8.85-10.14a7.44,7.44,0,0,1,6.2,2.93c1.64,2.26,1.72,5.38,1.75,6.94H347.82c0,1.21,0,3.74,1.72,5.58a7.61,7.61,0,0,0,5.66,2.07,14.51,14.51,0,0,0,5.26-1.09Zm-1.13-12.25a5.27,5.27,0,0,0-1.25-3.47,4.43,4.43,0,0,0-3.2-1.25c-2.3,0-4.29,1.52-5,4.72Z" transform="translate(-193.02 -250.46)"/>
    <path class="cls-6" d="M368,318.19h-3.59V290.65h15.21v2.77H368v9h10.1v2.81H368Z" transform="translate(-193.02 -250.46)"/>
    <path class="cls-6" d="M385.53,292.1a1.88,1.88,0,0,1-1.87,1.91,1.91,1.91,0,0,1-1.87-1.91,1.87,1.87,0,1,1,3.74,0Zm-.2,26.09H382V298.92h3.32Z" transform="translate(-193.02 -250.46)"/>
    <path class="cls-6" d="M390.13,318.19V298.92h3.32V302l2-2.93a12.82,12.82,0,0,1,4.13-.66,7.48,7.48,0,0,1,4.84,1.6c2,1.68,2,3.71,2,5.5v12.64h-3.35V306.92c0-3.32-.58-5.73-4.52-5.73a9.64,9.64,0,0,0-5.11,1.6v15.41Z" transform="translate(-193.02 -250.46)"/>
    <path class="cls-6" d="M424.41,318a13.4,13.4,0,0,1-4.21.62c-5.77,0-10.14-3.32-10.14-10.06,0-6,3.71-10.14,8.85-10.14a7.44,7.44,0,0,1,6.2,2.93c1.64,2.26,1.72,5.38,1.75,6.94H413.61c0,1.21,0,3.74,1.72,5.58A7.61,7.61,0,0,0,421,316a14.51,14.51,0,0,0,5.26-1.09Zm-1.13-12.25a5.27,5.27,0,0,0-1.25-3.47,4.43,4.43,0,0,0-3.2-1.25c-2.3,0-4.29,1.52-5,4.72Z" transform="translate(-193.02 -250.46)"/>
    <path class="cls-6" d="M447.07,318.19h-3.32V315.5L442,318.19a8.92,8.92,0,0,1-3,.47c-6.32,0-9.4-4.13-9.4-9.75,0-5.46,3.32-10.45,9.32-10.45a10.64,10.64,0,0,1,4.88,1.17v-9h3.32Zm-3.32-15.8a9,9,0,0,0-4.37-1.21,5.7,5.7,0,0,0-3.71,1.29c-1.91,1.52-2.57,4.06-2.57,6.55,0,4.41,2.46,6.94,6.2,6.94a10.63,10.63,0,0,0,4.45-1.05Z" transform="translate(-193.02 -250.46)"/>
  </g>
</svg>
