<svg xmlns="http://www.w3.org/2000/svg" viewBox="0 0 256.29 238.52"><defs><style>.cls-1{fill:#0a7aa1;}.cls-2{fill:#c23a27;}.cls-3{fill:#f16725;}.cls-4{fill:#f9a451;}.cls-5{fill:#32afc0;}.cls-6{fill:#072b48;}.cls-7{fill:#0f88a8;}</style></defs><title>ReFinedPlastics_LogoMain</title><g id="TreeBranches"><rect class="cls-1" x="13.83" y="92.1" width="1.3" height="36.75"/><rect class="cls-1" x="555.95" y="154.36" width="1.3" height="40.64" transform="translate(-321.86 -349.96) rotate(35.29)"/><rect class="cls-1" x="580.48" y="158.78" width="1.3" height="43.86" transform="translate(-550.25 67.56) rotate(-12.31)"/><rect class="cls-1" x="593.15" y="76.06" width="1.3" height="36.75" transform="translate(98.16 -566.58) rotate(83.77)"/><rect class="cls-1" x="638.16" y="63.72" width="1.3" height="42.39" transform="translate(213.46 661.1) rotate(-106.48)"/><rect class="cls-1" x="638.66" y="86.03" width="1.3" height="55.33" transform="translate(-381.94 472.1) rotate(-50.26)"/><rect class="cls-1" x="667.62" y="90.43" width="1.3" height="36.75" transform="translate(-511.87 -122.9) rotate(5.4)"/><rect class="cls-1" x="700.78" y="73.88" width="1.3" height="46.76" transform="translate(-324.3 537.6) rotate(-52.9)"/><rect class="cls-1" x="694.72" y="100.73" width="1.3" height="48.99" transform="translate(56.6 -632.6) rotate(70.53)"/><rect class="cls-1" x="711.97" y="117.13" width="1.3" height="36.75" transform="translate(-353.84 -407.79) rotate(30.96)"/><rect class="cls-1" x="680.85" y="128.93" width="1.3" height="36.75" transform="translate(-378.26 534.32) rotate(-52.12)"/><rect class="cls-1" x="646.28" y="128.55" width="1.3" height="36.75" transform="translate(-125.92 -528.96) rotate(55.27)"/><rect class="cls-1" x="708.32" y="161.08" width="1.3" height="36.75" transform="translate(-525.47 296.88) rotate(-28.28)"/><rect class="cls-1" x="749.41" y="172.91" width="1.3" height="36.75" transform="translate(144.88 -639.11) rotate(69.75)"/><rect class="cls-1" x="754.88" y="150.13" width="1.3" height="36.75" transform="translate(-430.13 511.58) rotate(-43.99)"/><rect class="cls-1" x="751.14" y="137.67" width="1.3" height="19.86" transform="translate(-215.48 -538.54) rotate(43.64)"/><rect class="cls-1" x="724.22" y="138.78" width="1.3" height="36.75" transform="translate(310.1 -636.79) rotate(86.32)"/><rect class="cls-1" x="733.51" y="117.13" width="1.3" height="36.75" transform="translate(-517.76 245.52) rotate(-23.66)"/><rect class="cls-1" x="742.89" y="105.93" width="1.3" height="36.75" transform="translate(-230.94 669.09) rotate(-62.9)"/><rect class="cls-1" x="734.16" y="154.44" width="1.3" height="36.75" transform="translate(-370.62 -370.38) rotate(26.52)"/><rect class="cls-1" x="767.05" y="142.99" width="1.3" height="36.75" transform="translate(-536.37 8.28) rotate(-5.09)"/><rect class="cls-1" x="552.5" y="103.26" width="1.3" height="41.48" transform="translate(-365.3 -344.66) rotate(33.42)"/><rect class="cls-1" x="594.27" y="92.64" width="1.3" height="52.87" transform="translate(-350.2 -379.22) rotate(34.87)"/><rect class="cls-1" x="615.74" y="97.41" width="1.3" height="47.1" transform="translate(-533.4 -5.18) rotate(-5.1)"/><rect class="cls-1" x="571.39" y="105.4" width="1.3" height="36.75" transform="translate(-532.52 -18.9) rotate(-4.14)"/><rect class="cls-1" x="553.95" y="130.04" width="1.3" height="36.75" transform="translate(293.35 -421.97) rotate(102.38)"/><rect class="cls-1" x="595.48" y="139.15" width="1.3" height="36.75" transform="translate(335 -460.19) rotate(100.54)"/><rect class="cls-1" x="566.25" y="186.44" width="1.3" height="36.75" transform="translate(363.37 -365.49) rotate(102.38)"/><rect class="cls-1" x="600.45" y="172.48" width="1.3" height="36.75" transform="translate(-320.54 -360.02) rotate(33.42)"/></g><g id="Logo"><path class="cls-2" d="M624.43,142.15a20.07,20.07,0,1,0,20.06,20.06A20.06,20.06,0,0,0,624.43,142.15Zm0,24.54a4.48,4.48,0,1,1,4.48-4.48A4.49,4.49,0,0,1,624.43,166.69Z" transform="translate(-525.08 -60.48)"/><circle class="cls-3" cx="48.81" cy="89.63" r="12.11"/><circle class="cls-4" cx="63.12" cy="148.91" r="8.58"/><circle class="cls-5" cx="12.6" cy="140.33" r="12.6"/><circle class="cls-3" cx="15.14" cy="84.85" r="8.59"/><circle class="cls-2" cx="88.49" cy="31.94" r="7.5"/><circle class="cls-2" cx="172.61" cy="99.04" r="14.1"/><circle class="cls-3" cx="199.79" cy="54.56" r="7.79"/><circle class="cls-4" cx="140.57" cy="75.03" r="8.83"/><path class="cls-4" d="M569.92,86a11.43,11.43,0,1,0,11.44,11.44A11.44,11.44,0,0,0,569.92,86Zm0,13.93a2.5,2.5,0,1,1,2.5-2.49A2.49,2.49,0,0,1,569.92,100Z" transform="translate(-525.08 -60.48)"/><path class="cls-4" d="M764.72,124.31a11.2,11.2,0,1,0,11.2,11.2A11.2,11.2,0,0,0,764.72,124.31Zm0,13.85a2.65,2.65,0,1,1,2.64-2.65A2.65,2.65,0,0,1,764.72,138.16Z" transform="translate(-525.08 -60.48)"/><circle class="cls-5" cx="218.45" cy="95.22" r="6.52"/><path class="cls-5" d="M721.21,184.31a16.5,16.5,0,1,0,16.5,16.5A16.5,16.5,0,0,0,721.21,184.31Zm0,20a3.49,3.49,0,1,1,3.49-3.49A3.5,3.5,0,0,1,721.21,204.3Z" transform="translate(-525.08 -60.48)"/><path class="cls-5" d="M671.27,60.48a15.17,15.17,0,1,0,15.17,15.18A15.18,15.18,0,0,0,671.27,60.48Zm0,18.33a3.15,3.15,0,1,1,3.15-3.15A3.16,3.16,0,0,1,671.27,78.81Z" transform="translate(-525.08 -60.48)"/><circle class="cls-3" cx="245.2" cy="123.43" r="11.09"/><path class="cls-1" d="M677.25,299V233.75l13.67-16.83L696,228.75l-8.06,9.2.31,61" transform="translate(-525.08 -60.48)"/><path class="cls-6" d="M670.5,299H659.33q.08-48.58.17-97.17l15.33-33.33L681.5,179l-11.33,27.67" transform="translate(-525.08 -60.48)"/><path class="cls-7" d="M652.67,299H642.33l.83-87.5-9.83-16,6.17-9.67,13.67,20.5" transform="translate(-525.08 -60.48)"/><path class="cls-5" d="M634.5,299H624l.67-57.17L615.5,225.5l6.17-9.83L634.5,237" transform="translate(-525.08 -60.48)"/></g></svg>